<mxfile host="app.diagrams.net" modified="2023-06-18T08:36:12.328Z" agent="Mozilla/5.0 (Windows NT 10.0; Win64; x64) AppleWebKit/537.36 (KHTML, like Gecko) Chrome/114.0.0.0 Safari/537.36" etag="8cppi8JyM56X7cx6-LEl" version="21.3.4" type="device">
  <diagram name="Page-1" id="-bnTTtl445jZ_6ajG-8d">
    <mxGraphModel dx="2624" dy="829" grid="1" gridSize="10" guides="1" tooltips="1" connect="1" arrows="1" fold="1" page="1" pageScale="1" pageWidth="850" pageHeight="1100" math="0" shadow="0">
      <root>
        <mxCell id="0" />
        <mxCell id="1" parent="0" />
        <mxCell id="VoS2cG7jSg4z9FvmRYZC-49" value="&lt;br&gt;" style="html=1;dropTarget=0;whiteSpace=wrap;container=0;" vertex="1" parent="1">
          <mxGeometry x="473" y="467" width="723" height="220" as="geometry" />
        </mxCell>
        <mxCell id="VoS2cG7jSg4z9FvmRYZC-22" value="&lt;br&gt;" style="html=1;dropTarget=0;whiteSpace=wrap;" vertex="1" parent="1">
          <mxGeometry x="-290" y="81" width="530" height="199" as="geometry" />
        </mxCell>
        <mxCell id="VoS2cG7jSg4z9FvmRYZC-23" value="" style="shape=module;jettyWidth=8;jettyHeight=4;movable=0;resizable=0;rotatable=0;deletable=0;editable=0;locked=1;connectable=0;" vertex="1" parent="VoS2cG7jSg4z9FvmRYZC-22">
          <mxGeometry x="1" width="11" height="20" relative="1" as="geometry">
            <mxPoint x="-18" y="7" as="offset" />
          </mxGeometry>
        </mxCell>
        <mxCell id="VoS2cG7jSg4z9FvmRYZC-37" value="" style="ellipse;whiteSpace=wrap;html=1;aspect=fixed;movable=1;resizable=1;rotatable=1;deletable=1;editable=1;locked=0;connectable=1;" vertex="1" parent="1">
          <mxGeometry x="-341" y="175.81" width="11" height="11" as="geometry" />
        </mxCell>
        <mxCell id="VoS2cG7jSg4z9FvmRYZC-38" value="" style="whiteSpace=wrap;html=1;aspect=fixed;movable=1;resizable=1;rotatable=1;deletable=1;editable=1;locked=0;connectable=1;" vertex="1" parent="1">
          <mxGeometry x="-301" y="171" width="20.61" height="20.61" as="geometry" />
        </mxCell>
        <mxCell id="VoS2cG7jSg4z9FvmRYZC-41" value="" style="endArrow=none;html=1;rounded=0;entryX=0;entryY=0.5;entryDx=0;entryDy=0;movable=1;resizable=1;rotatable=1;deletable=1;editable=1;locked=0;connectable=1;" edge="1" parent="1" target="VoS2cG7jSg4z9FvmRYZC-38">
          <mxGeometry width="50" height="50" relative="1" as="geometry">
            <mxPoint x="-330" y="181" as="sourcePoint" />
            <mxPoint x="-220" y="211" as="targetPoint" />
          </mxGeometry>
        </mxCell>
        <mxCell id="VoS2cG7jSg4z9FvmRYZC-44" value="&lt;font style=&quot;font-size: 10px;&quot;&gt;Login&lt;/font&gt;" style="text;html=1;strokeColor=none;fillColor=none;align=center;verticalAlign=middle;whiteSpace=wrap;rounded=0;movable=1;resizable=1;rotatable=1;deletable=1;editable=1;locked=0;connectable=1;" vertex="1" parent="1">
          <mxGeometry x="-341" y="191" width="40" height="20" as="geometry" />
        </mxCell>
        <mxCell id="VoS2cG7jSg4z9FvmRYZC-45" value="" style="rounded=0;orthogonalLoop=1;jettySize=auto;html=1;endArrow=none;endFill=0;sketch=0;sourcePerimeterSpacing=0;targetPerimeterSpacing=0;exitX=1;exitY=0.5;exitDx=0;exitDy=0;movable=1;resizable=1;rotatable=1;deletable=1;editable=1;locked=0;connectable=1;" edge="1" target="VoS2cG7jSg4z9FvmRYZC-47" parent="1" source="VoS2cG7jSg4z9FvmRYZC-38">
          <mxGeometry relative="1" as="geometry">
            <mxPoint x="-268" y="182" as="sourcePoint" />
          </mxGeometry>
        </mxCell>
        <mxCell id="VoS2cG7jSg4z9FvmRYZC-34" value="&lt;b style=&quot;border-color: var(--border-color);&quot;&gt;&lt;font style=&quot;font-size: 10px;&quot;&gt;User Interface&lt;/font&gt;&lt;/b&gt;" style="text;html=1;strokeColor=none;fillColor=none;align=center;verticalAlign=middle;whiteSpace=wrap;rounded=0;movable=1;resizable=1;rotatable=1;deletable=1;editable=1;locked=0;connectable=1;" vertex="1" parent="1">
          <mxGeometry x="-65.62" y="91.53" width="81.24" height="19.47" as="geometry" />
        </mxCell>
        <mxCell id="VoS2cG7jSg4z9FvmRYZC-24" value="&lt;font style=&quot;font-size: 8px;&quot;&gt;«Component»&lt;br&gt;&lt;b style=&quot;&quot;&gt;Authentication and &lt;br&gt;Authorization&amp;nbsp;&lt;/b&gt;&lt;/font&gt;" style="html=1;dropTarget=0;whiteSpace=wrap;movable=1;resizable=1;rotatable=1;deletable=1;editable=1;locked=0;connectable=1;" vertex="1" parent="1">
          <mxGeometry x="-200.62" y="140" width="141" height="80" as="geometry" />
        </mxCell>
        <mxCell id="VoS2cG7jSg4z9FvmRYZC-25" value="" style="shape=module;jettyWidth=8;jettyHeight=4;movable=1;resizable=1;rotatable=1;deletable=1;editable=1;locked=0;connectable=1;" vertex="1" parent="VoS2cG7jSg4z9FvmRYZC-24">
          <mxGeometry x="1" width="13" height="20" relative="1" as="geometry">
            <mxPoint x="-17" y="3" as="offset" />
          </mxGeometry>
        </mxCell>
        <mxCell id="VoS2cG7jSg4z9FvmRYZC-39" value="" style="whiteSpace=wrap;html=1;aspect=fixed;movable=1;resizable=1;rotatable=1;deletable=1;editable=1;locked=0;connectable=1;" vertex="1" parent="1">
          <mxGeometry x="-210" y="171.69" width="20.61" height="20.61" as="geometry" />
        </mxCell>
        <mxCell id="VoS2cG7jSg4z9FvmRYZC-46" value="" style="rounded=0;orthogonalLoop=1;jettySize=auto;html=1;endArrow=halfCircle;endFill=0;entryX=0.5;entryY=0.5;endSize=6;strokeWidth=1;sketch=0;exitX=0;exitY=0.5;exitDx=0;exitDy=0;movable=1;resizable=1;rotatable=1;deletable=1;editable=1;locked=0;connectable=1;" edge="1" target="VoS2cG7jSg4z9FvmRYZC-47" parent="1" source="VoS2cG7jSg4z9FvmRYZC-39">
          <mxGeometry relative="1" as="geometry">
            <mxPoint x="122" y="141" as="sourcePoint" />
          </mxGeometry>
        </mxCell>
        <mxCell id="VoS2cG7jSg4z9FvmRYZC-47" value="" style="ellipse;whiteSpace=wrap;html=1;align=center;aspect=fixed;resizable=1;points=[];outlineConnect=0;sketch=0;movable=1;rotatable=1;deletable=1;editable=1;locked=0;connectable=1;" vertex="1" parent="1">
          <mxGeometry x="-253" y="177" width="10" height="10" as="geometry" />
        </mxCell>
        <mxCell id="VoS2cG7jSg4z9FvmRYZC-48" value="&lt;font style=&quot;font-size: 10px;&quot;&gt;+ Login Info&lt;/font&gt;" style="text;html=1;strokeColor=none;fillColor=none;align=center;verticalAlign=middle;whiteSpace=wrap;rounded=0;movable=1;resizable=1;rotatable=1;deletable=1;editable=1;locked=0;connectable=1;" vertex="1" parent="1">
          <mxGeometry x="-279" y="151.69" width="62" height="20" as="geometry" />
        </mxCell>
        <mxCell id="VoS2cG7jSg4z9FvmRYZC-58" value="" style="group;movable=1;resizable=1;rotatable=1;deletable=1;editable=1;locked=0;connectable=1;" vertex="1" connectable="0" parent="1">
          <mxGeometry x="-310" y="470" width="740" height="360" as="geometry" />
        </mxCell>
        <mxCell id="VoS2cG7jSg4z9FvmRYZC-52" value="&lt;br&gt;" style="html=1;dropTarget=0;whiteSpace=wrap;movable=1;resizable=1;rotatable=1;deletable=1;editable=1;locked=0;connectable=1;" vertex="1" parent="VoS2cG7jSg4z9FvmRYZC-58">
          <mxGeometry x="-40" y="-70" width="749.38" height="330" as="geometry" />
        </mxCell>
        <mxCell id="VoS2cG7jSg4z9FvmRYZC-53" value="" style="shape=module;jettyWidth=8;jettyHeight=4;movable=1;resizable=1;rotatable=1;deletable=1;editable=1;locked=0;connectable=1;" vertex="1" parent="VoS2cG7jSg4z9FvmRYZC-52">
          <mxGeometry x="1" width="11" height="20" relative="1" as="geometry">
            <mxPoint x="-18" y="7" as="offset" />
          </mxGeometry>
        </mxCell>
        <mxCell id="VoS2cG7jSg4z9FvmRYZC-66" value="&lt;font style=&quot;font-size: 8px;&quot;&gt;«Component»&lt;br&gt;&lt;b&gt;View Feedback&lt;/b&gt;&lt;br&gt;&lt;/font&gt;" style="html=1;dropTarget=0;whiteSpace=wrap;movable=1;resizable=1;rotatable=1;deletable=1;editable=1;locked=0;connectable=1;" vertex="1" parent="VoS2cG7jSg4z9FvmRYZC-58">
          <mxGeometry x="150" width="141" height="64" as="geometry" />
        </mxCell>
        <mxCell id="VoS2cG7jSg4z9FvmRYZC-67" value="" style="shape=module;jettyWidth=8;jettyHeight=4;movable=1;resizable=1;rotatable=1;deletable=1;editable=1;locked=0;connectable=1;" vertex="1" parent="VoS2cG7jSg4z9FvmRYZC-66">
          <mxGeometry x="1" width="13" height="20" relative="1" as="geometry">
            <mxPoint x="-17" y="3" as="offset" />
          </mxGeometry>
        </mxCell>
        <mxCell id="VoS2cG7jSg4z9FvmRYZC-78" value="&lt;font style=&quot;font-size: 8px;&quot;&gt;«Component»&lt;br&gt;&lt;b&gt;Feedback Analysis and Report&amp;nbsp;&lt;/b&gt;&lt;br&gt;&lt;/font&gt;" style="html=1;dropTarget=0;whiteSpace=wrap;movable=1;resizable=1;rotatable=1;deletable=1;editable=1;locked=0;connectable=1;" vertex="1" parent="VoS2cG7jSg4z9FvmRYZC-58">
          <mxGeometry x="329.86" width="141" height="64" as="geometry" />
        </mxCell>
        <mxCell id="VoS2cG7jSg4z9FvmRYZC-79" value="" style="shape=module;jettyWidth=8;jettyHeight=4;movable=1;resizable=1;rotatable=1;deletable=1;editable=1;locked=0;connectable=1;" vertex="1" parent="VoS2cG7jSg4z9FvmRYZC-78">
          <mxGeometry x="1" width="13" height="20" relative="1" as="geometry">
            <mxPoint x="-17" y="3" as="offset" />
          </mxGeometry>
        </mxCell>
        <mxCell id="VoS2cG7jSg4z9FvmRYZC-92" value="&lt;font style=&quot;font-size: 8px;&quot;&gt;«Component»&lt;br&gt;&lt;b&gt;Reply Feedback&lt;/b&gt;&lt;br&gt;&lt;/font&gt;" style="html=1;dropTarget=0;whiteSpace=wrap;movable=1;resizable=1;rotatable=1;deletable=1;editable=1;locked=0;connectable=1;" vertex="1" parent="VoS2cG7jSg4z9FvmRYZC-58">
          <mxGeometry x="510" y="49" width="141" height="77" as="geometry" />
        </mxCell>
        <mxCell id="VoS2cG7jSg4z9FvmRYZC-93" value="" style="shape=module;jettyWidth=8;jettyHeight=4;movable=1;resizable=1;rotatable=1;deletable=1;editable=1;locked=0;connectable=1;" vertex="1" parent="VoS2cG7jSg4z9FvmRYZC-92">
          <mxGeometry x="1" width="13" height="20" relative="1" as="geometry">
            <mxPoint x="-17" y="3" as="offset" />
          </mxGeometry>
        </mxCell>
        <mxCell id="VoS2cG7jSg4z9FvmRYZC-173" value="" style="whiteSpace=wrap;html=1;aspect=fixed;movable=1;resizable=1;rotatable=1;deletable=1;editable=1;locked=0;connectable=1;container=0;fontStyle=1" vertex="1" parent="VoS2cG7jSg4z9FvmRYZC-58">
          <mxGeometry x="344.3900000000001" y="250" width="20.61" height="20.61" as="geometry" />
        </mxCell>
        <mxCell id="VoS2cG7jSg4z9FvmRYZC-190" value="&lt;font style=&quot;font-size: 8px;&quot;&gt;«Component»&lt;br&gt;&lt;b&gt;Download Excel Feedback&lt;/b&gt;&lt;br&gt;&lt;/font&gt;" style="html=1;dropTarget=0;whiteSpace=wrap;movable=1;resizable=1;rotatable=1;deletable=1;editable=1;locked=0;connectable=1;" vertex="1" parent="VoS2cG7jSg4z9FvmRYZC-58">
          <mxGeometry x="238.19" y="130" width="141" height="64" as="geometry" />
        </mxCell>
        <mxCell id="VoS2cG7jSg4z9FvmRYZC-191" value="" style="shape=module;jettyWidth=8;jettyHeight=4;movable=1;resizable=1;rotatable=1;deletable=1;editable=1;locked=0;connectable=1;" vertex="1" parent="VoS2cG7jSg4z9FvmRYZC-190">
          <mxGeometry x="1" width="13" height="20" relative="1" as="geometry">
            <mxPoint x="-17" y="3" as="offset" />
          </mxGeometry>
        </mxCell>
        <mxCell id="VoS2cG7jSg4z9FvmRYZC-195" value="" style="group;rotation=0;" vertex="1" connectable="0" parent="VoS2cG7jSg4z9FvmRYZC-58">
          <mxGeometry x="651" y="341" width="40" height="10" as="geometry" />
        </mxCell>
        <mxCell id="VoS2cG7jSg4z9FvmRYZC-194" value="" style="ellipse;whiteSpace=wrap;html=1;align=center;aspect=fixed;resizable=0;points=[];outlineConnect=0;sketch=0;rotation=-180;" vertex="1" parent="VoS2cG7jSg4z9FvmRYZC-195">
          <mxGeometry x="15" width="10" height="10" as="geometry" />
        </mxCell>
        <mxCell id="VoS2cG7jSg4z9FvmRYZC-193" value="" style="rounded=0;orthogonalLoop=1;jettySize=auto;html=1;endArrow=halfCircle;endFill=0;entryX=0.6;entryY=0.5;endSize=6;strokeWidth=1;sketch=0;exitX=0.507;exitY=0.972;exitDx=0;exitDy=0;exitPerimeter=0;entryDx=0;entryDy=0;entryPerimeter=0;" edge="1" target="VoS2cG7jSg4z9FvmRYZC-194" parent="VoS2cG7jSg4z9FvmRYZC-58">
          <mxGeometry relative="1" as="geometry">
            <mxPoint x="354.6556599999999" y="345.9200000000001" as="sourcePoint" />
            <mxPoint x="666" y="346" as="targetPoint" />
          </mxGeometry>
        </mxCell>
        <mxCell id="VoS2cG7jSg4z9FvmRYZC-202" value="" style="ellipse;whiteSpace=wrap;html=1;align=center;aspect=fixed;resizable=0;points=[];outlineConnect=0;sketch=0;" vertex="1" parent="VoS2cG7jSg4z9FvmRYZC-58">
          <mxGeometry x="303.69" y="220" width="10" height="10" as="geometry" />
        </mxCell>
        <mxCell id="VoS2cG7jSg4z9FvmRYZC-200" value="" style="rounded=0;orthogonalLoop=1;jettySize=auto;html=1;endArrow=none;endFill=0;sketch=0;sourcePerimeterSpacing=0;targetPerimeterSpacing=0;" edge="1" target="VoS2cG7jSg4z9FvmRYZC-202" parent="VoS2cG7jSg4z9FvmRYZC-58">
          <mxGeometry relative="1" as="geometry">
            <mxPoint x="435" y="225" as="sourcePoint" />
          </mxGeometry>
        </mxCell>
        <mxCell id="VoS2cG7jSg4z9FvmRYZC-203" value="" style="endArrow=none;html=1;rounded=0;exitX=0.5;exitY=0;exitDx=0;exitDy=0;" edge="1" parent="VoS2cG7jSg4z9FvmRYZC-58" source="VoS2cG7jSg4z9FvmRYZC-173">
          <mxGeometry width="50" height="50" relative="1" as="geometry">
            <mxPoint x="354.69500000000016" y="245" as="sourcePoint" />
            <mxPoint x="355" y="225" as="targetPoint" />
          </mxGeometry>
        </mxCell>
        <mxCell id="VoS2cG7jSg4z9FvmRYZC-214" value="" style="endArrow=none;html=1;rounded=0;entryX=0.5;entryY=1;entryDx=0;entryDy=0;" edge="1" parent="VoS2cG7jSg4z9FvmRYZC-58" source="VoS2cG7jSg4z9FvmRYZC-202" target="VoS2cG7jSg4z9FvmRYZC-190">
          <mxGeometry width="50" height="50" relative="1" as="geometry">
            <mxPoint x="365" y="190" as="sourcePoint" />
            <mxPoint x="415" y="140" as="targetPoint" />
          </mxGeometry>
        </mxCell>
        <mxCell id="VoS2cG7jSg4z9FvmRYZC-215" value="" style="ellipse;whiteSpace=wrap;html=1;align=center;aspect=fixed;resizable=0;points=[];outlineConnect=0;sketch=0;" vertex="1" parent="VoS2cG7jSg4z9FvmRYZC-58">
          <mxGeometry x="575.5" y="220" width="10" height="10" as="geometry" />
        </mxCell>
        <mxCell id="VoS2cG7jSg4z9FvmRYZC-216" value="" style="rounded=0;orthogonalLoop=1;jettySize=auto;html=1;endArrow=none;endFill=0;sketch=0;sourcePerimeterSpacing=0;targetPerimeterSpacing=0;" edge="1" parent="VoS2cG7jSg4z9FvmRYZC-58" source="VoS2cG7jSg4z9FvmRYZC-215">
          <mxGeometry relative="1" as="geometry">
            <mxPoint x="486" y="224.85999999999996" as="sourcePoint" />
            <mxPoint x="350" y="224.85999999999996" as="targetPoint" />
          </mxGeometry>
        </mxCell>
        <mxCell id="VoS2cG7jSg4z9FvmRYZC-217" value="" style="endArrow=none;html=1;rounded=0;entryX=0.5;entryY=1;entryDx=0;entryDy=0;" edge="1" parent="VoS2cG7jSg4z9FvmRYZC-58" source="VoS2cG7jSg4z9FvmRYZC-215" target="VoS2cG7jSg4z9FvmRYZC-92">
          <mxGeometry width="50" height="50" relative="1" as="geometry">
            <mxPoint x="580.25" y="206" as="sourcePoint" />
            <mxPoint x="580.25" y="180" as="targetPoint" />
          </mxGeometry>
        </mxCell>
        <mxCell id="VoS2cG7jSg4z9FvmRYZC-218" value="" style="whiteSpace=wrap;html=1;aspect=fixed;movable=1;resizable=1;rotatable=1;deletable=1;editable=1;locked=0;connectable=1;container=0;fontStyle=1" vertex="1" parent="VoS2cG7jSg4z9FvmRYZC-58">
          <mxGeometry x="298.3800000000001" y="184" width="20.61" height="20.61" as="geometry" />
        </mxCell>
        <mxCell id="VoS2cG7jSg4z9FvmRYZC-219" value="" style="whiteSpace=wrap;html=1;aspect=fixed;movable=1;resizable=1;rotatable=1;deletable=1;editable=1;locked=0;connectable=1;container=0;fontStyle=1" vertex="1" parent="VoS2cG7jSg4z9FvmRYZC-58">
          <mxGeometry x="570.19" y="115" width="20.61" height="20.61" as="geometry" />
        </mxCell>
        <mxCell id="VoS2cG7jSg4z9FvmRYZC-249" value="" style="whiteSpace=wrap;html=1;aspect=fixed;movable=1;resizable=1;rotatable=1;deletable=1;editable=1;locked=0;connectable=1;container=0;fontStyle=1" vertex="1" parent="VoS2cG7jSg4z9FvmRYZC-58">
          <mxGeometry x="210.1900000000001" y="-10" width="20.61" height="20.61" as="geometry" />
        </mxCell>
        <mxCell id="VoS2cG7jSg4z9FvmRYZC-250" value="" style="whiteSpace=wrap;html=1;aspect=fixed;movable=1;resizable=1;rotatable=1;deletable=1;editable=1;locked=0;connectable=1;container=0;fontStyle=1" vertex="1" parent="VoS2cG7jSg4z9FvmRYZC-58">
          <mxGeometry x="210.1900000000001" y="53" width="20.61" height="20.61" as="geometry" />
        </mxCell>
        <mxCell id="VoS2cG7jSg4z9FvmRYZC-251" value="" style="whiteSpace=wrap;html=1;aspect=fixed;movable=1;resizable=1;rotatable=1;deletable=1;editable=1;locked=0;connectable=1;container=0;fontStyle=1" vertex="1" parent="VoS2cG7jSg4z9FvmRYZC-58">
          <mxGeometry x="390.0600000000001" y="-10" width="20.61" height="20.61" as="geometry" />
        </mxCell>
        <mxCell id="VoS2cG7jSg4z9FvmRYZC-252" value="" style="whiteSpace=wrap;html=1;aspect=fixed;movable=1;resizable=1;rotatable=1;deletable=1;editable=1;locked=0;connectable=1;container=0;fontStyle=1" vertex="1" parent="VoS2cG7jSg4z9FvmRYZC-58">
          <mxGeometry x="390.0500000000001" y="53" width="20.61" height="20.61" as="geometry" />
        </mxCell>
        <mxCell id="VoS2cG7jSg4z9FvmRYZC-253" value="" style="whiteSpace=wrap;html=1;aspect=fixed;movable=1;resizable=1;rotatable=1;deletable=1;editable=1;locked=0;connectable=1;container=0;fontStyle=1" vertex="1" parent="VoS2cG7jSg4z9FvmRYZC-58">
          <mxGeometry x="570.19" y="42" width="20.61" height="20.61" as="geometry" />
        </mxCell>
        <mxCell id="VoS2cG7jSg4z9FvmRYZC-254" value="" style="whiteSpace=wrap;html=1;aspect=fixed;movable=1;resizable=1;rotatable=1;deletable=1;editable=1;locked=0;connectable=1;container=0;fontStyle=1" vertex="1" parent="VoS2cG7jSg4z9FvmRYZC-58">
          <mxGeometry x="570.19" y="-80" width="20.61" height="20.61" as="geometry" />
        </mxCell>
        <mxCell id="VoS2cG7jSg4z9FvmRYZC-255" value="" style="whiteSpace=wrap;html=1;aspect=fixed;movable=1;resizable=1;rotatable=1;deletable=1;editable=1;locked=0;connectable=1;container=0;fontStyle=1" vertex="1" parent="VoS2cG7jSg4z9FvmRYZC-58">
          <mxGeometry x="389.05000000000007" y="-80" width="20.61" height="20.61" as="geometry" />
        </mxCell>
        <mxCell id="VoS2cG7jSg4z9FvmRYZC-257" value="" style="rounded=0;orthogonalLoop=1;jettySize=auto;html=1;endArrow=none;endFill=0;sketch=0;sourcePerimeterSpacing=0;targetPerimeterSpacing=0;exitX=1;exitY=0;exitDx=0;exitDy=0;" edge="1" target="VoS2cG7jSg4z9FvmRYZC-259" parent="VoS2cG7jSg4z9FvmRYZC-58" source="VoS2cG7jSg4z9FvmRYZC-295">
          <mxGeometry relative="1" as="geometry">
            <mxPoint x="320" y="95" as="sourcePoint" />
          </mxGeometry>
        </mxCell>
        <mxCell id="VoS2cG7jSg4z9FvmRYZC-258" value="" style="rounded=0;orthogonalLoop=1;jettySize=auto;html=1;endArrow=halfCircle;endFill=0;entryX=0.5;entryY=0.5;endSize=6;strokeWidth=1;sketch=0;exitX=0;exitY=1;exitDx=0;exitDy=0;" edge="1" target="VoS2cG7jSg4z9FvmRYZC-259" parent="VoS2cG7jSg4z9FvmRYZC-58" source="VoS2cG7jSg4z9FvmRYZC-252">
          <mxGeometry relative="1" as="geometry">
            <mxPoint x="360" y="95" as="sourcePoint" />
          </mxGeometry>
        </mxCell>
        <mxCell id="VoS2cG7jSg4z9FvmRYZC-259" value="" style="ellipse;whiteSpace=wrap;html=1;align=center;aspect=fixed;resizable=0;points=[];outlineConnect=0;sketch=0;" vertex="1" parent="VoS2cG7jSg4z9FvmRYZC-58">
          <mxGeometry x="349.69" y="92.07" width="10" height="10" as="geometry" />
        </mxCell>
        <mxCell id="VoS2cG7jSg4z9FvmRYZC-261" value="" style="rounded=0;orthogonalLoop=1;jettySize=auto;html=1;endArrow=halfCircle;endFill=0;entryX=0.5;entryY=0.5;endSize=6;strokeWidth=1;sketch=0;exitX=1;exitY=1;exitDx=0;exitDy=0;" edge="1" parent="VoS2cG7jSg4z9FvmRYZC-58" target="VoS2cG7jSg4z9FvmRYZC-262" source="VoS2cG7jSg4z9FvmRYZC-250">
          <mxGeometry relative="1" as="geometry">
            <mxPoint x="381.1189321881345" y="107.92893218813447" as="sourcePoint" />
          </mxGeometry>
        </mxCell>
        <mxCell id="VoS2cG7jSg4z9FvmRYZC-260" value="" style="rounded=0;orthogonalLoop=1;jettySize=auto;html=1;endArrow=none;endFill=0;sketch=0;sourcePerimeterSpacing=0;targetPerimeterSpacing=0;exitX=0;exitY=0;exitDx=0;exitDy=0;" edge="1" parent="VoS2cG7jSg4z9FvmRYZC-58" target="VoS2cG7jSg4z9FvmRYZC-262" source="VoS2cG7jSg4z9FvmRYZC-295">
          <mxGeometry relative="1" as="geometry">
            <mxPoint x="420.1189321881345" y="72.92893218813447" as="sourcePoint" />
          </mxGeometry>
        </mxCell>
        <mxCell id="VoS2cG7jSg4z9FvmRYZC-276" value="&lt;font style=&quot;font-size: 10px;&quot;&gt;Feedback records&lt;/font&gt;" style="text;html=1;strokeColor=none;fillColor=none;align=center;verticalAlign=middle;whiteSpace=wrap;rounded=0;movable=1;resizable=1;rotatable=1;deletable=1;editable=1;locked=0;connectable=1;" vertex="1" parent="VoS2cG7jSg4z9FvmRYZC-58">
          <mxGeometry x="621.4599999999999" y="316" width="99.09" height="15" as="geometry" />
        </mxCell>
        <mxCell id="VoS2cG7jSg4z9FvmRYZC-287" value="" style="ellipse;whiteSpace=wrap;html=1;align=center;aspect=fixed;resizable=0;points=[];outlineConnect=0;sketch=0;" vertex="1" parent="VoS2cG7jSg4z9FvmRYZC-58">
          <mxGeometry x="215.47000000000003" y="-38" width="10" height="10" as="geometry" />
        </mxCell>
        <mxCell id="VoS2cG7jSg4z9FvmRYZC-288" value="" style="rounded=0;orthogonalLoop=1;jettySize=auto;html=1;endArrow=none;endFill=0;sketch=0;sourcePerimeterSpacing=0;targetPerimeterSpacing=0;entryX=0.5;entryY=0;entryDx=0;entryDy=0;" edge="1" parent="VoS2cG7jSg4z9FvmRYZC-58" source="VoS2cG7jSg4z9FvmRYZC-287" target="VoS2cG7jSg4z9FvmRYZC-249">
          <mxGeometry relative="1" as="geometry">
            <mxPoint x="98.38" y="-28" as="sourcePoint" />
            <mxPoint x="98.38" y="-6" as="targetPoint" />
          </mxGeometry>
        </mxCell>
        <mxCell id="VoS2cG7jSg4z9FvmRYZC-292" value="" style="ellipse;whiteSpace=wrap;html=1;align=center;aspect=fixed;resizable=0;points=[];outlineConnect=0;sketch=0;" vertex="1" parent="VoS2cG7jSg4z9FvmRYZC-58">
          <mxGeometry x="575.49" y="-37.389999999999986" width="10" height="10" as="geometry" />
        </mxCell>
        <mxCell id="VoS2cG7jSg4z9FvmRYZC-293" value="" style="rounded=0;orthogonalLoop=1;jettySize=auto;html=1;endArrow=none;endFill=0;sketch=0;sourcePerimeterSpacing=0;targetPerimeterSpacing=0;entryX=0.5;entryY=0;entryDx=0;entryDy=0;" edge="1" parent="VoS2cG7jSg4z9FvmRYZC-58" source="VoS2cG7jSg4z9FvmRYZC-292" target="VoS2cG7jSg4z9FvmRYZC-253">
          <mxGeometry relative="1" as="geometry">
            <mxPoint x="578.4" y="-27.389999999999986" as="sourcePoint" />
            <mxPoint x="580.02" y="-9.389999999999986" as="targetPoint" />
          </mxGeometry>
        </mxCell>
        <mxCell id="VoS2cG7jSg4z9FvmRYZC-294" value="" style="rounded=0;orthogonalLoop=1;jettySize=auto;html=1;endArrow=none;endFill=0;sketch=0;sourcePerimeterSpacing=0;targetPerimeterSpacing=0;exitX=0.5;exitY=1;exitDx=0;exitDy=0;" edge="1" parent="VoS2cG7jSg4z9FvmRYZC-58" target="VoS2cG7jSg4z9FvmRYZC-292">
          <mxGeometry relative="1" as="geometry">
            <mxPoint x="581.02" y="-59.389999999999986" as="sourcePoint" />
          </mxGeometry>
        </mxCell>
        <mxCell id="VoS2cG7jSg4z9FvmRYZC-264" value="" style="group;rotation=-225;" vertex="1" connectable="0" parent="VoS2cG7jSg4z9FvmRYZC-58">
          <mxGeometry x="249.99893218813452" y="87.92893218813452" width="14.142135623730951" height="14.142135623730951" as="geometry" />
        </mxCell>
        <mxCell id="VoS2cG7jSg4z9FvmRYZC-263" value="" style="group;rotation=-90;" vertex="1" connectable="0" parent="VoS2cG7jSg4z9FvmRYZC-264">
          <mxGeometry x="2" y="2" width="10" height="10" as="geometry" />
        </mxCell>
        <mxCell id="VoS2cG7jSg4z9FvmRYZC-262" value="" style="ellipse;whiteSpace=wrap;html=1;align=center;aspect=fixed;resizable=0;points=[];outlineConnect=0;sketch=0;rotation=-90;" vertex="1" parent="VoS2cG7jSg4z9FvmRYZC-263">
          <mxGeometry width="10" height="10" as="geometry" />
        </mxCell>
        <mxCell id="VoS2cG7jSg4z9FvmRYZC-295" value="" style="whiteSpace=wrap;html=1;aspect=fixed;movable=1;resizable=1;rotatable=1;deletable=1;editable=1;locked=0;connectable=1;container=0;fontStyle=1" vertex="1" parent="VoS2cG7jSg4z9FvmRYZC-58">
          <mxGeometry x="298.3800000000001" y="120" width="20.61" height="20.61" as="geometry" />
        </mxCell>
        <mxCell id="VoS2cG7jSg4z9FvmRYZC-296" value="&lt;font style=&quot;font-size: 8px;&quot;&gt;«Component»&lt;br&gt;&lt;b&gt;Profile&amp;nbsp;&lt;/b&gt;&lt;br&gt;&lt;/font&gt;" style="html=1;dropTarget=0;whiteSpace=wrap;movable=1;resizable=1;rotatable=1;deletable=1;editable=1;locked=0;connectable=1;container=0;" vertex="1" parent="VoS2cG7jSg4z9FvmRYZC-58">
          <mxGeometry x="-20" width="141" height="64" as="geometry" />
        </mxCell>
        <mxCell id="VoS2cG7jSg4z9FvmRYZC-297" value="" style="shape=module;jettyWidth=8;jettyHeight=4;movable=1;resizable=1;rotatable=1;deletable=1;editable=1;locked=0;connectable=1;" vertex="1" parent="VoS2cG7jSg4z9FvmRYZC-58">
          <mxGeometry x="104" y="3" width="13" height="20" as="geometry" />
        </mxCell>
        <mxCell id="VoS2cG7jSg4z9FvmRYZC-298" value="" style="whiteSpace=wrap;html=1;aspect=fixed;movable=1;resizable=1;rotatable=1;deletable=1;editable=1;locked=0;connectable=1;container=0;fontStyle=1" vertex="1" parent="VoS2cG7jSg4z9FvmRYZC-58">
          <mxGeometry x="40.190000000000055" y="-10" width="20.61" height="20.61" as="geometry" />
        </mxCell>
        <mxCell id="VoS2cG7jSg4z9FvmRYZC-299" value="" style="whiteSpace=wrap;html=1;aspect=fixed;movable=1;resizable=1;rotatable=1;deletable=1;editable=1;locked=0;connectable=1;container=0;fontStyle=1" vertex="1" parent="VoS2cG7jSg4z9FvmRYZC-58">
          <mxGeometry x="40.190000000000055" y="-80" width="20.61" height="20.61" as="geometry" />
        </mxCell>
        <mxCell id="VoS2cG7jSg4z9FvmRYZC-300" value="" style="whiteSpace=wrap;html=1;aspect=fixed;movable=1;resizable=1;rotatable=1;deletable=1;editable=1;locked=0;connectable=1;container=0;fontStyle=1" vertex="1" parent="VoS2cG7jSg4z9FvmRYZC-58">
          <mxGeometry x="40.190000000000055" y="53" width="20.61" height="20.61" as="geometry" />
        </mxCell>
        <mxCell id="VoS2cG7jSg4z9FvmRYZC-301" value="" style="whiteSpace=wrap;html=1;aspect=fixed;movable=1;resizable=1;rotatable=1;deletable=1;editable=1;locked=0;connectable=1;container=0;fontStyle=1" vertex="1" parent="VoS2cG7jSg4z9FvmRYZC-58">
          <mxGeometry x="40.190000000000055" y="250" width="20.61" height="20.61" as="geometry" />
        </mxCell>
        <mxCell id="VoS2cG7jSg4z9FvmRYZC-308" value="" style="endArrow=none;html=1;rounded=0;entryX=0.5;entryY=1;entryDx=0;entryDy=0;" edge="1" parent="VoS2cG7jSg4z9FvmRYZC-58" target="VoS2cG7jSg4z9FvmRYZC-301">
          <mxGeometry width="50" height="50" relative="1" as="geometry">
            <mxPoint x="50.20999999999998" y="370" as="sourcePoint" />
            <mxPoint x="50.20999999999998" y="295" as="targetPoint" />
          </mxGeometry>
        </mxCell>
        <mxCell id="VoS2cG7jSg4z9FvmRYZC-309" value="" style="endArrow=none;html=1;rounded=0;entryX=0.5;entryY=1;entryDx=0;entryDy=0;exitX=0.5;exitY=0;exitDx=0;exitDy=0;" edge="1" parent="VoS2cG7jSg4z9FvmRYZC-58" source="VoS2cG7jSg4z9FvmRYZC-301" target="VoS2cG7jSg4z9FvmRYZC-300">
          <mxGeometry width="50" height="50" relative="1" as="geometry">
            <mxPoint x="50.41999999999996" y="194" as="sourcePoint" />
            <mxPoint x="50.20999999999998" y="95" as="targetPoint" />
          </mxGeometry>
        </mxCell>
        <mxCell id="VoS2cG7jSg4z9FvmRYZC-310" value="" style="ellipse;whiteSpace=wrap;html=1;align=center;aspect=fixed;resizable=0;points=[];outlineConnect=0;sketch=0;" vertex="1" parent="VoS2cG7jSg4z9FvmRYZC-58">
          <mxGeometry x="45.5" y="150" width="10" height="10" as="geometry" />
        </mxCell>
        <mxCell id="VoS2cG7jSg4z9FvmRYZC-312" value="" style="ellipse;whiteSpace=wrap;html=1;align=center;aspect=fixed;resizable=0;points=[];outlineConnect=0;sketch=0;" vertex="1" parent="VoS2cG7jSg4z9FvmRYZC-58">
          <mxGeometry x="45.5" y="-38" width="10" height="10" as="geometry" />
        </mxCell>
        <mxCell id="VoS2cG7jSg4z9FvmRYZC-313" value="" style="rounded=0;orthogonalLoop=1;jettySize=auto;html=1;endArrow=none;endFill=0;sketch=0;sourcePerimeterSpacing=0;targetPerimeterSpacing=0;entryX=0.5;entryY=0;entryDx=0;entryDy=0;" edge="1" parent="VoS2cG7jSg4z9FvmRYZC-58" source="VoS2cG7jSg4z9FvmRYZC-312">
          <mxGeometry relative="1" as="geometry">
            <mxPoint x="-71.59000000000003" y="-28" as="sourcePoint" />
            <mxPoint x="50.02999999999997" y="-10" as="targetPoint" />
          </mxGeometry>
        </mxCell>
        <mxCell id="VoS2cG7jSg4z9FvmRYZC-314" value="" style="rounded=0;orthogonalLoop=1;jettySize=auto;html=1;endArrow=none;endFill=0;sketch=0;sourcePerimeterSpacing=0;targetPerimeterSpacing=0;exitX=0.5;exitY=1;exitDx=0;exitDy=0;" edge="1" parent="VoS2cG7jSg4z9FvmRYZC-58" target="VoS2cG7jSg4z9FvmRYZC-312">
          <mxGeometry relative="1" as="geometry">
            <mxPoint x="51.02999999999997" y="-60" as="sourcePoint" />
          </mxGeometry>
        </mxCell>
        <mxCell id="VoS2cG7jSg4z9FvmRYZC-331" value="" style="whiteSpace=wrap;html=1;aspect=fixed;movable=1;resizable=1;rotatable=1;deletable=1;editable=1;locked=0;connectable=1;container=0;fontStyle=1" vertex="1" parent="VoS2cG7jSg4z9FvmRYZC-58">
          <mxGeometry x="640" y="77.19999999999999" width="20.61" height="20.61" as="geometry" />
        </mxCell>
        <mxCell id="VoS2cG7jSg4z9FvmRYZC-339" value="&lt;font style=&quot;font-size: 10px;&quot;&gt;Feedback info&lt;/font&gt;" style="text;html=1;strokeColor=none;fillColor=none;align=center;verticalAlign=middle;whiteSpace=wrap;rounded=0;movable=1;resizable=1;rotatable=1;deletable=1;editable=1;locked=0;connectable=1;" vertex="1" parent="VoS2cG7jSg4z9FvmRYZC-58">
          <mxGeometry x="170" y="87.93000000000006" width="80" height="15" as="geometry" />
        </mxCell>
        <mxCell id="VoS2cG7jSg4z9FvmRYZC-343" value="&lt;font style=&quot;font-size: 10px;&quot;&gt;Feedback info&lt;/font&gt;" style="text;html=1;strokeColor=none;fillColor=none;align=center;verticalAlign=middle;whiteSpace=wrap;rounded=0;movable=1;resizable=1;rotatable=1;deletable=1;editable=1;locked=0;connectable=1;" vertex="1" parent="VoS2cG7jSg4z9FvmRYZC-58">
          <mxGeometry x="365" y="87.93000000000006" width="80" height="15" as="geometry" />
        </mxCell>
        <mxCell id="VoS2cG7jSg4z9FvmRYZC-347" value="" style="whiteSpace=wrap;html=1;aspect=fixed;movable=1;resizable=1;rotatable=1;deletable=1;editable=1;locked=0;connectable=1;container=0;fontStyle=1" vertex="1" parent="VoS2cG7jSg4z9FvmRYZC-58">
          <mxGeometry x="460.00000000000006" y="23" width="20.61" height="20.61" as="geometry" />
        </mxCell>
        <mxCell id="VoS2cG7jSg4z9FvmRYZC-348" value="" style="whiteSpace=wrap;html=1;aspect=fixed;movable=1;resizable=1;rotatable=1;deletable=1;editable=1;locked=0;connectable=1;container=0;fontStyle=1" vertex="1" parent="VoS2cG7jSg4z9FvmRYZC-58">
          <mxGeometry x="699.94" y="-30.610000000000014" width="20.61" height="20.61" as="geometry" />
        </mxCell>
        <mxCell id="VoS2cG7jSg4z9FvmRYZC-349" value="" style="endArrow=none;html=1;rounded=0;exitX=1;exitY=0.5;exitDx=0;exitDy=0;entryX=0;entryY=0.5;entryDx=0;entryDy=0;" edge="1" parent="VoS2cG7jSg4z9FvmRYZC-58" source="VoS2cG7jSg4z9FvmRYZC-350" target="VoS2cG7jSg4z9FvmRYZC-348">
          <mxGeometry width="50" height="50" relative="1" as="geometry">
            <mxPoint x="600" y="50" as="sourcePoint" />
            <mxPoint x="650" as="targetPoint" />
          </mxGeometry>
        </mxCell>
        <mxCell id="VoS2cG7jSg4z9FvmRYZC-350" value="" style="ellipse;whiteSpace=wrap;html=1;align=center;aspect=fixed;resizable=0;points=[];outlineConnect=0;sketch=0;" vertex="1" parent="VoS2cG7jSg4z9FvmRYZC-58">
          <mxGeometry x="590.8" y="0.6100000000000136" width="10" height="10" as="geometry" />
        </mxCell>
        <mxCell id="VoS2cG7jSg4z9FvmRYZC-352" value="" style="endArrow=none;html=1;rounded=0;exitX=1;exitY=0.5;exitDx=0;exitDy=0;entryX=0;entryY=0.5;entryDx=0;entryDy=0;" edge="1" parent="VoS2cG7jSg4z9FvmRYZC-58" source="VoS2cG7jSg4z9FvmRYZC-347" target="VoS2cG7jSg4z9FvmRYZC-350">
          <mxGeometry width="50" height="50" relative="1" as="geometry">
            <mxPoint x="171" y="503" as="sourcePoint" />
            <mxPoint x="390" y="450" as="targetPoint" />
          </mxGeometry>
        </mxCell>
        <mxCell id="VoS2cG7jSg4z9FvmRYZC-59" value="" style="group" vertex="1" connectable="0" parent="1">
          <mxGeometry x="706" y="45" width="620" height="279.00000000000006" as="geometry" />
        </mxCell>
        <mxCell id="VoS2cG7jSg4z9FvmRYZC-55" value="&lt;br&gt;" style="html=1;dropTarget=0;whiteSpace=wrap;" vertex="1" parent="VoS2cG7jSg4z9FvmRYZC-59">
          <mxGeometry x="394" y="54" width="270" height="270" as="geometry" />
        </mxCell>
        <mxCell id="VoS2cG7jSg4z9FvmRYZC-56" value="" style="shape=module;jettyWidth=8;jettyHeight=4;" vertex="1" parent="VoS2cG7jSg4z9FvmRYZC-55">
          <mxGeometry x="1" width="11" height="20" relative="1" as="geometry">
            <mxPoint x="-18" y="7" as="offset" />
          </mxGeometry>
        </mxCell>
        <mxCell id="VoS2cG7jSg4z9FvmRYZC-57" value="&lt;b style=&quot;border-color: var(--border-color);&quot;&gt;&lt;font style=&quot;font-size: 10px;&quot;&gt;Administrator&lt;/font&gt;&lt;/b&gt;" style="text;html=1;strokeColor=none;fillColor=none;align=center;verticalAlign=middle;whiteSpace=wrap;rounded=0;" vertex="1" parent="VoS2cG7jSg4z9FvmRYZC-59">
          <mxGeometry x="483.38" y="64.52999999999997" width="81.24" height="19.47" as="geometry" />
        </mxCell>
        <mxCell id="VoS2cG7jSg4z9FvmRYZC-90" value="&lt;font style=&quot;font-size: 8px;&quot;&gt;«Component»&lt;br&gt;&lt;b&gt;View Report&lt;/b&gt;&lt;br&gt;&lt;/font&gt;" style="html=1;dropTarget=0;whiteSpace=wrap;movable=1;resizable=1;rotatable=1;deletable=1;editable=1;locked=0;connectable=1;" vertex="1" parent="VoS2cG7jSg4z9FvmRYZC-59">
          <mxGeometry x="458.5" y="104" width="141" height="64" as="geometry" />
        </mxCell>
        <mxCell id="VoS2cG7jSg4z9FvmRYZC-91" value="" style="shape=module;jettyWidth=8;jettyHeight=4;" vertex="1" parent="VoS2cG7jSg4z9FvmRYZC-90">
          <mxGeometry x="1" width="13" height="20" relative="1" as="geometry">
            <mxPoint x="-17" y="3" as="offset" />
          </mxGeometry>
        </mxCell>
        <mxCell id="VoS2cG7jSg4z9FvmRYZC-346" value="" style="group" vertex="1" connectable="0" parent="VoS2cG7jSg4z9FvmRYZC-59">
          <mxGeometry x="458.5" y="204" width="141" height="64" as="geometry" />
        </mxCell>
        <mxCell id="VoS2cG7jSg4z9FvmRYZC-344" value="&lt;font style=&quot;font-size: 8px;&quot;&gt;«Component»&lt;br&gt;&lt;b&gt;Profile&amp;nbsp;&lt;/b&gt;&lt;br&gt;&lt;/font&gt;" style="html=1;dropTarget=0;whiteSpace=wrap;movable=1;resizable=1;rotatable=1;deletable=1;editable=1;locked=0;connectable=1;container=0;" vertex="1" parent="VoS2cG7jSg4z9FvmRYZC-346">
          <mxGeometry width="141" height="64" as="geometry" />
        </mxCell>
        <mxCell id="VoS2cG7jSg4z9FvmRYZC-345" value="" style="shape=module;jettyWidth=8;jettyHeight=4;container=0;" vertex="1" parent="VoS2cG7jSg4z9FvmRYZC-346">
          <mxGeometry x="124" y="3" width="13" height="20" as="geometry">
            <mxPoint x="-17" y="3" as="offset" />
          </mxGeometry>
        </mxCell>
        <mxCell id="VoS2cG7jSg4z9FvmRYZC-357" value="" style="whiteSpace=wrap;html=1;aspect=fixed;movable=1;resizable=1;rotatable=1;deletable=1;editable=1;locked=0;connectable=1;container=0;" vertex="1" parent="VoS2cG7jSg4z9FvmRYZC-59">
          <mxGeometry x="384" y="125.69999999999999" width="20.61" height="20.61" as="geometry" />
        </mxCell>
        <mxCell id="VoS2cG7jSg4z9FvmRYZC-358" value="" style="whiteSpace=wrap;html=1;aspect=fixed;movable=1;resizable=1;rotatable=1;deletable=1;editable=1;locked=0;connectable=1;container=0;" vertex="1" parent="VoS2cG7jSg4z9FvmRYZC-59">
          <mxGeometry x="449" y="125.69999999999999" width="20.61" height="20.61" as="geometry" />
        </mxCell>
        <mxCell id="VoS2cG7jSg4z9FvmRYZC-359" value="" style="whiteSpace=wrap;html=1;aspect=fixed;movable=1;resizable=1;rotatable=1;deletable=1;editable=1;locked=0;connectable=1;container=0;" vertex="1" parent="VoS2cG7jSg4z9FvmRYZC-59">
          <mxGeometry x="449" y="225.69" width="20.61" height="20.61" as="geometry" />
        </mxCell>
        <mxCell id="VoS2cG7jSg4z9FvmRYZC-360" value="" style="whiteSpace=wrap;html=1;aspect=fixed;movable=1;resizable=1;rotatable=1;deletable=1;editable=1;locked=0;connectable=1;container=0;" vertex="1" parent="VoS2cG7jSg4z9FvmRYZC-59">
          <mxGeometry x="384" y="225.69" width="20.61" height="20.61" as="geometry" />
        </mxCell>
        <mxCell id="VoS2cG7jSg4z9FvmRYZC-355" value="" style="ellipse;whiteSpace=wrap;html=1;align=center;aspect=fixed;resizable=0;points=[];outlineConnect=0;sketch=0;" vertex="1" parent="VoS2cG7jSg4z9FvmRYZC-59">
          <mxGeometry x="23" y="279" width="10" height="10" as="geometry" />
        </mxCell>
        <mxCell id="VoS2cG7jSg4z9FvmRYZC-354" value="" style="rounded=0;orthogonalLoop=1;jettySize=auto;html=1;endArrow=halfCircle;endFill=0;entryX=0.5;entryY=0.5;endSize=6;strokeWidth=1;sketch=0;exitX=0;exitY=0.5;exitDx=0;exitDy=0;" edge="1" target="VoS2cG7jSg4z9FvmRYZC-355" parent="VoS2cG7jSg4z9FvmRYZC-59" source="VoS2cG7jSg4z9FvmRYZC-361">
          <mxGeometry relative="1" as="geometry">
            <mxPoint x="244" y="145" as="sourcePoint" />
          </mxGeometry>
        </mxCell>
        <mxCell id="VoS2cG7jSg4z9FvmRYZC-361" value="" style="whiteSpace=wrap;html=1;aspect=fixed;movable=1;resizable=1;rotatable=1;deletable=1;editable=1;locked=0;connectable=1;container=0;" vertex="1" parent="VoS2cG7jSg4z9FvmRYZC-59">
          <mxGeometry x="384" y="168" width="20.61" height="20.61" as="geometry" />
        </mxCell>
        <mxCell id="VoS2cG7jSg4z9FvmRYZC-362" value="&lt;font style=&quot;font-size: 10px;&quot;&gt;Report info&lt;/font&gt;" style="text;html=1;strokeColor=none;fillColor=none;align=center;verticalAlign=middle;whiteSpace=wrap;rounded=0;movable=1;resizable=1;rotatable=1;deletable=1;editable=1;locked=0;connectable=1;" vertex="1" parent="VoS2cG7jSg4z9FvmRYZC-59">
          <mxGeometry x="-47" y="264.00000000000006" width="80" height="15" as="geometry" />
        </mxCell>
        <mxCell id="VoS2cG7jSg4z9FvmRYZC-374" value="" style="endArrow=none;html=1;rounded=0;entryX=0;entryY=0.5;entryDx=0;entryDy=0;exitX=1;exitY=0.5;exitDx=0;exitDy=0;" edge="1" parent="VoS2cG7jSg4z9FvmRYZC-59" source="VoS2cG7jSg4z9FvmRYZC-360" target="VoS2cG7jSg4z9FvmRYZC-359">
          <mxGeometry width="50" height="50" relative="1" as="geometry">
            <mxPoint x="294" y="305" as="sourcePoint" />
            <mxPoint x="344" y="255" as="targetPoint" />
          </mxGeometry>
        </mxCell>
        <mxCell id="VoS2cG7jSg4z9FvmRYZC-375" value="" style="endArrow=none;html=1;rounded=0;entryX=0;entryY=0.5;entryDx=0;entryDy=0;exitX=1;exitY=0.5;exitDx=0;exitDy=0;" edge="1" parent="VoS2cG7jSg4z9FvmRYZC-59">
          <mxGeometry width="50" height="50" relative="1" as="geometry">
            <mxPoint x="405" y="135.82" as="sourcePoint" />
            <mxPoint x="449" y="135.82" as="targetPoint" />
          </mxGeometry>
        </mxCell>
        <mxCell id="VoS2cG7jSg4z9FvmRYZC-376" value="" style="ellipse;whiteSpace=wrap;html=1;align=center;aspect=fixed;resizable=0;points=[];outlineConnect=0;sketch=0;" vertex="1" parent="VoS2cG7jSg4z9FvmRYZC-59">
          <mxGeometry x="424" y="231" width="10" height="10" as="geometry" />
        </mxCell>
        <mxCell id="VoS2cG7jSg4z9FvmRYZC-378" value="" style="ellipse;whiteSpace=wrap;html=1;align=center;aspect=fixed;resizable=0;points=[];outlineConnect=0;sketch=0;" vertex="1" parent="VoS2cG7jSg4z9FvmRYZC-59">
          <mxGeometry x="424" y="131" width="10" height="10" as="geometry" />
        </mxCell>
        <mxCell id="VoS2cG7jSg4z9FvmRYZC-380" value="" style="endArrow=none;html=1;rounded=0;exitX=1;exitY=0.25;exitDx=0;exitDy=0;entryX=0;entryY=1;entryDx=0;entryDy=0;" edge="1" parent="VoS2cG7jSg4z9FvmRYZC-59" source="VoS2cG7jSg4z9FvmRYZC-361" target="VoS2cG7jSg4z9FvmRYZC-358">
          <mxGeometry width="50" height="50" relative="1" as="geometry">
            <mxPoint x="434" y="215" as="sourcePoint" />
            <mxPoint x="484" y="165" as="targetPoint" />
          </mxGeometry>
        </mxCell>
        <mxCell id="VoS2cG7jSg4z9FvmRYZC-381" value="" style="ellipse;whiteSpace=wrap;html=1;align=center;aspect=fixed;resizable=0;points=[];outlineConnect=0;sketch=0;" vertex="1" parent="VoS2cG7jSg4z9FvmRYZC-59">
          <mxGeometry x="423" y="154.31" width="10" height="10" as="geometry" />
        </mxCell>
        <mxCell id="VoS2cG7jSg4z9FvmRYZC-60" value="" style="rounded=0;orthogonalLoop=1;jettySize=auto;html=1;endArrow=none;endFill=0;sketch=0;sourcePerimeterSpacing=0;targetPerimeterSpacing=0;exitX=1.011;exitY=0.454;exitDx=0;exitDy=0;exitPerimeter=0;movable=1;resizable=1;rotatable=1;deletable=1;editable=1;locked=0;connectable=1;" edge="1" target="VoS2cG7jSg4z9FvmRYZC-62" parent="1">
          <mxGeometry relative="1" as="geometry">
            <mxPoint x="-49.393289999999844" y="182.06694" as="sourcePoint" />
          </mxGeometry>
        </mxCell>
        <mxCell id="VoS2cG7jSg4z9FvmRYZC-61" value="" style="rounded=0;orthogonalLoop=1;jettySize=auto;html=1;endArrow=halfCircle;endFill=0;entryX=0.5;entryY=0.5;endSize=6;strokeWidth=1;sketch=0;exitX=-0.004;exitY=0.447;exitDx=0;exitDy=0;exitPerimeter=0;movable=1;resizable=1;rotatable=1;deletable=1;editable=1;locked=0;connectable=1;" edge="1" target="VoS2cG7jSg4z9FvmRYZC-62" parent="1">
          <mxGeometry relative="1" as="geometry">
            <mxPoint x="9.687560000000094" y="181.91267" as="sourcePoint" />
          </mxGeometry>
        </mxCell>
        <mxCell id="VoS2cG7jSg4z9FvmRYZC-62" value="" style="ellipse;whiteSpace=wrap;html=1;align=center;aspect=fixed;resizable=1;points=[];outlineConnect=0;sketch=0;movable=1;rotatable=1;deletable=1;editable=1;locked=0;connectable=1;" vertex="1" parent="1">
          <mxGeometry x="-25.23" y="177.01" width="10" height="10" as="geometry" />
        </mxCell>
        <mxCell id="VoS2cG7jSg4z9FvmRYZC-96" value="&lt;font style=&quot;font-size: 8px;&quot;&gt;«Component»&lt;br&gt;&lt;b style=&quot;&quot;&gt;Account&amp;nbsp;&lt;/b&gt;&lt;/font&gt;" style="html=1;dropTarget=0;whiteSpace=wrap;movable=1;resizable=1;rotatable=1;deletable=1;editable=1;locked=0;connectable=1;" vertex="1" parent="1">
          <mxGeometry x="20" y="140" width="141" height="80" as="geometry" />
        </mxCell>
        <mxCell id="VoS2cG7jSg4z9FvmRYZC-97" value="" style="shape=module;jettyWidth=8;jettyHeight=4;movable=1;resizable=1;rotatable=1;deletable=1;editable=1;locked=0;connectable=1;" vertex="1" parent="VoS2cG7jSg4z9FvmRYZC-96">
          <mxGeometry x="1" width="13" height="20" relative="1" as="geometry">
            <mxPoint x="-17" y="3" as="offset" />
          </mxGeometry>
        </mxCell>
        <mxCell id="VoS2cG7jSg4z9FvmRYZC-98" value="" style="whiteSpace=wrap;html=1;aspect=fixed;movable=1;resizable=1;rotatable=1;deletable=1;editable=1;locked=0;connectable=1;" vertex="1" parent="1">
          <mxGeometry x="-70" y="171.7" width="20.61" height="20.61" as="geometry" />
        </mxCell>
        <mxCell id="VoS2cG7jSg4z9FvmRYZC-99" value="" style="whiteSpace=wrap;html=1;aspect=fixed;movable=1;resizable=1;rotatable=1;deletable=1;editable=1;locked=0;connectable=1;" vertex="1" parent="1">
          <mxGeometry x="10" y="171.69" width="20.61" height="20.61" as="geometry" />
        </mxCell>
        <mxCell id="VoS2cG7jSg4z9FvmRYZC-100" value="" style="rounded=0;orthogonalLoop=1;jettySize=auto;html=1;endArrow=none;endFill=0;sketch=0;sourcePerimeterSpacing=0;targetPerimeterSpacing=0;exitX=1;exitY=0.5;exitDx=0;exitDy=0;movable=1;resizable=1;rotatable=1;deletable=1;editable=1;locked=0;connectable=1;" edge="1" parent="1" target="VoS2cG7jSg4z9FvmRYZC-102" source="VoS2cG7jSg4z9FvmRYZC-103">
          <mxGeometry relative="1" as="geometry">
            <mxPoint x="169.99671000000015" y="183.74694" as="sourcePoint" />
          </mxGeometry>
        </mxCell>
        <mxCell id="VoS2cG7jSg4z9FvmRYZC-101" value="" style="rounded=0;orthogonalLoop=1;jettySize=auto;html=1;endArrow=halfCircle;endFill=0;entryX=0.5;entryY=0.5;endSize=6;strokeWidth=1;sketch=0;exitX=0;exitY=0.5;exitDx=0;exitDy=0;movable=1;resizable=1;rotatable=1;deletable=1;editable=1;locked=0;connectable=1;" edge="1" parent="1" target="VoS2cG7jSg4z9FvmRYZC-102" source="VoS2cG7jSg4z9FvmRYZC-104">
          <mxGeometry relative="1" as="geometry">
            <mxPoint x="229.0775600000001" y="183.59267" as="sourcePoint" />
          </mxGeometry>
        </mxCell>
        <mxCell id="VoS2cG7jSg4z9FvmRYZC-102" value="" style="ellipse;whiteSpace=wrap;html=1;align=center;aspect=fixed;resizable=1;points=[];outlineConnect=0;sketch=0;movable=1;rotatable=1;deletable=1;editable=1;locked=0;connectable=1;" vertex="1" parent="1">
          <mxGeometry x="194.15999999999997" y="178.69" width="10" height="10" as="geometry" />
        </mxCell>
        <mxCell id="VoS2cG7jSg4z9FvmRYZC-103" value="" style="whiteSpace=wrap;html=1;aspect=fixed;movable=1;resizable=1;rotatable=1;deletable=1;editable=1;locked=0;connectable=1;" vertex="1" parent="1">
          <mxGeometry x="150" y="173.39" width="20.61" height="20.61" as="geometry" />
        </mxCell>
        <mxCell id="VoS2cG7jSg4z9FvmRYZC-104" value="" style="whiteSpace=wrap;html=1;aspect=fixed;movable=1;resizable=1;rotatable=1;deletable=1;editable=1;locked=0;connectable=1;" vertex="1" parent="1">
          <mxGeometry x="230" y="173.39" width="20.61" height="20.61" as="geometry" />
        </mxCell>
        <mxCell id="VoS2cG7jSg4z9FvmRYZC-105" value="" style="whiteSpace=wrap;html=1;aspect=fixed;movable=1;resizable=1;rotatable=1;deletable=1;editable=1;locked=0;connectable=1;" vertex="1" parent="1">
          <mxGeometry x="80.19" y="211" width="20.61" height="20.61" as="geometry" />
        </mxCell>
        <mxCell id="VoS2cG7jSg4z9FvmRYZC-106" value="" style="rounded=0;orthogonalLoop=1;jettySize=auto;html=1;endArrow=none;endFill=0;sketch=0;sourcePerimeterSpacing=0;targetPerimeterSpacing=0;exitX=0.5;exitY=1;exitDx=0;exitDy=0;movable=1;resizable=1;rotatable=1;deletable=1;editable=1;locked=0;connectable=1;" edge="1" parent="1" target="VoS2cG7jSg4z9FvmRYZC-108" source="VoS2cG7jSg4z9FvmRYZC-105">
          <mxGeometry relative="1" as="geometry">
            <mxPoint x="130.81" y="335.31" as="sourcePoint" />
          </mxGeometry>
        </mxCell>
        <mxCell id="VoS2cG7jSg4z9FvmRYZC-107" value="" style="rounded=0;orthogonalLoop=1;jettySize=auto;html=1;endArrow=halfCircle;endFill=0;endSize=6;strokeWidth=1;sketch=0;movable=1;resizable=1;rotatable=1;deletable=1;editable=1;locked=0;connectable=1;exitX=0.5;exitY=0;exitDx=0;exitDy=0;" edge="1" parent="1" source="VoS2cG7jSg4z9FvmRYZC-109">
          <mxGeometry relative="1" as="geometry">
            <mxPoint x="90.41" y="264" as="sourcePoint" />
            <mxPoint x="90.41" y="244" as="targetPoint" />
          </mxGeometry>
        </mxCell>
        <mxCell id="VoS2cG7jSg4z9FvmRYZC-108" value="" style="ellipse;whiteSpace=wrap;html=1;align=center;aspect=fixed;resizable=1;points=[];outlineConnect=0;sketch=0;movable=1;rotatable=1;deletable=1;editable=1;locked=0;connectable=1;" vertex="1" parent="1">
          <mxGeometry x="85.49999999999997" y="240" width="10" height="10" as="geometry" />
        </mxCell>
        <mxCell id="VoS2cG7jSg4z9FvmRYZC-109" value="" style="whiteSpace=wrap;html=1;aspect=fixed;movable=1;resizable=1;rotatable=1;deletable=1;editable=1;locked=0;connectable=1;" vertex="1" parent="1">
          <mxGeometry x="80.19" y="270" width="20.61" height="20.61" as="geometry" />
        </mxCell>
        <mxCell id="VoS2cG7jSg4z9FvmRYZC-110" value="&lt;font style=&quot;font-size: 10px;&quot;&gt;+ User Session&lt;/font&gt;" style="text;html=1;strokeColor=none;fillColor=none;align=center;verticalAlign=middle;whiteSpace=wrap;rounded=0;movable=1;resizable=1;rotatable=1;deletable=1;editable=1;locked=0;connectable=1;" vertex="1" parent="1">
          <mxGeometry x="-60" y="151" width="80" height="20" as="geometry" />
        </mxCell>
        <mxCell id="VoS2cG7jSg4z9FvmRYZC-111" value="&lt;font style=&quot;font-size: 10px;&quot;&gt;User Type&lt;/font&gt;" style="text;html=1;strokeColor=none;fillColor=none;align=center;verticalAlign=middle;whiteSpace=wrap;rounded=0;movable=1;resizable=1;rotatable=1;deletable=1;editable=1;locked=0;connectable=1;" vertex="1" parent="1">
          <mxGeometry x="20" y="235" width="60.19" height="15" as="geometry" />
        </mxCell>
        <mxCell id="VoS2cG7jSg4z9FvmRYZC-112" value="&lt;font style=&quot;font-size: 10px;&quot;&gt;User Type&lt;/font&gt;" style="text;html=1;strokeColor=none;fillColor=none;align=center;verticalAlign=middle;whiteSpace=wrap;rounded=0;movable=1;resizable=1;rotatable=1;deletable=1;editable=1;locked=0;connectable=1;" vertex="1" parent="1">
          <mxGeometry x="170.61" y="158.39" width="60.19" height="15" as="geometry" />
        </mxCell>
        <mxCell id="VoS2cG7jSg4z9FvmRYZC-113" value="" style="whiteSpace=wrap;html=1;aspect=fixed;movable=1;resizable=1;rotatable=1;deletable=1;editable=1;locked=0;connectable=1;" vertex="1" parent="1">
          <mxGeometry x="150" y="211" width="20.61" height="20.61" as="geometry" />
        </mxCell>
        <mxCell id="VoS2cG7jSg4z9FvmRYZC-114" value="" style="rounded=0;orthogonalLoop=1;jettySize=auto;html=1;endArrow=none;endFill=0;sketch=0;sourcePerimeterSpacing=0;targetPerimeterSpacing=0;exitX=1;exitY=1;exitDx=0;exitDy=0;movable=1;resizable=1;rotatable=1;deletable=1;editable=1;locked=0;connectable=1;" edge="1" parent="1" target="VoS2cG7jSg4z9FvmRYZC-116" source="VoS2cG7jSg4z9FvmRYZC-113">
          <mxGeometry relative="1" as="geometry">
            <mxPoint x="171" y="221.61" as="sourcePoint" />
          </mxGeometry>
        </mxCell>
        <mxCell id="VoS2cG7jSg4z9FvmRYZC-115" value="" style="rounded=0;orthogonalLoop=1;jettySize=auto;html=1;endArrow=halfCircle;endFill=0;entryX=0.5;entryY=0.5;endSize=6;strokeWidth=1;sketch=0;exitX=0;exitY=0;exitDx=0;exitDy=0;movable=1;resizable=1;rotatable=1;deletable=1;editable=1;locked=0;connectable=1;" edge="1" parent="1" source="VoS2cG7jSg4z9FvmRYZC-117" target="VoS2cG7jSg4z9FvmRYZC-116">
          <mxGeometry relative="1" as="geometry">
            <mxPoint x="229.0775600000001" y="221.20267" as="sourcePoint" />
          </mxGeometry>
        </mxCell>
        <mxCell id="VoS2cG7jSg4z9FvmRYZC-116" value="" style="ellipse;whiteSpace=wrap;html=1;align=center;aspect=fixed;resizable=1;points=[];outlineConnect=0;sketch=0;movable=1;rotatable=1;deletable=1;editable=1;locked=0;connectable=1;" vertex="1" parent="1">
          <mxGeometry x="188.99999999999997" y="242" width="10" height="10" as="geometry" />
        </mxCell>
        <mxCell id="VoS2cG7jSg4z9FvmRYZC-117" value="" style="whiteSpace=wrap;html=1;aspect=fixed;movable=1;resizable=1;rotatable=1;deletable=1;editable=1;locked=0;connectable=1;" vertex="1" parent="1">
          <mxGeometry x="230" y="270" width="20.61" height="20.61" as="geometry" />
        </mxCell>
        <mxCell id="VoS2cG7jSg4z9FvmRYZC-118" value="&lt;font style=&quot;font-size: 10px;&quot;&gt;User Type&lt;/font&gt;" style="text;html=1;strokeColor=none;fillColor=none;align=center;verticalAlign=middle;whiteSpace=wrap;rounded=0;movable=1;resizable=1;rotatable=1;deletable=1;editable=1;locked=0;connectable=1;" vertex="1" parent="1">
          <mxGeometry x="204.16000000000003" y="231.61" width="60.19" height="15" as="geometry" />
        </mxCell>
        <mxCell id="VoS2cG7jSg4z9FvmRYZC-51" value="&lt;b style=&quot;border-color: var(--border-color);&quot;&gt;&lt;font style=&quot;font-size: 10px;&quot;&gt;Student&lt;/font&gt;&lt;/b&gt;" style="text;html=1;strokeColor=none;fillColor=none;align=center;verticalAlign=middle;whiteSpace=wrap;rounded=0;container=0;" vertex="1" parent="1">
          <mxGeometry x="793.88" y="471.77" width="81.24" height="19.47" as="geometry" />
        </mxCell>
        <mxCell id="VoS2cG7jSg4z9FvmRYZC-120" value="" style="rounded=0;orthogonalLoop=1;jettySize=auto;html=1;endArrow=none;endFill=0;sketch=0;sourcePerimeterSpacing=0;targetPerimeterSpacing=0;exitX=1;exitY=1;exitDx=0;exitDy=0;movable=1;resizable=1;rotatable=1;deletable=1;editable=1;locked=0;connectable=1;" edge="1" parent="1" target="VoS2cG7jSg4z9FvmRYZC-122" source="VoS2cG7jSg4z9FvmRYZC-117">
          <mxGeometry relative="1" as="geometry">
            <mxPoint x="450" y="330" as="sourcePoint" />
          </mxGeometry>
        </mxCell>
        <mxCell id="VoS2cG7jSg4z9FvmRYZC-122" value="" style="ellipse;whiteSpace=wrap;html=1;align=center;aspect=fixed;resizable=1;points=[];outlineConnect=0;sketch=0;movable=1;rotatable=1;deletable=1;editable=1;locked=0;connectable=1;" vertex="1" parent="1">
          <mxGeometry x="468" y="352" width="10" height="10" as="geometry" />
        </mxCell>
        <mxCell id="VoS2cG7jSg4z9FvmRYZC-63" value="&lt;font style=&quot;font-size: 8px;&quot;&gt;«Component»&lt;br&gt;&lt;b&gt;Profile&amp;nbsp;&lt;/b&gt;&lt;br&gt;&lt;/font&gt;" style="html=1;dropTarget=0;whiteSpace=wrap;movable=1;resizable=1;rotatable=1;deletable=1;editable=1;locked=0;connectable=1;container=0;" vertex="1" parent="1">
          <mxGeometry x="706" y="527" width="141" height="64" as="geometry" />
        </mxCell>
        <mxCell id="VoS2cG7jSg4z9FvmRYZC-50" value="" style="shape=module;jettyWidth=8;jettyHeight=4;container=0;" vertex="1" parent="1">
          <mxGeometry x="1178" y="474" width="11" height="20" as="geometry">
            <mxPoint x="-18" y="7" as="offset" />
          </mxGeometry>
        </mxCell>
        <mxCell id="VoS2cG7jSg4z9FvmRYZC-64" value="" style="shape=module;jettyWidth=8;jettyHeight=4;container=0;" vertex="1" parent="1">
          <mxGeometry x="830" y="530" width="13" height="20" as="geometry">
            <mxPoint x="-17" y="3" as="offset" />
          </mxGeometry>
        </mxCell>
        <mxCell id="VoS2cG7jSg4z9FvmRYZC-123" value="&lt;font style=&quot;font-size: 8px;&quot;&gt;«Component»&lt;br&gt;&lt;b&gt;Feedback Submission&amp;nbsp;&lt;/b&gt;&lt;br&gt;&lt;/font&gt;" style="html=1;dropTarget=0;whiteSpace=wrap;movable=1;resizable=1;rotatable=1;deletable=1;editable=1;locked=0;connectable=1;container=0;" vertex="1" parent="1">
          <mxGeometry x="865.5" y="527" width="141" height="64" as="geometry" />
        </mxCell>
        <mxCell id="VoS2cG7jSg4z9FvmRYZC-124" value="&lt;font style=&quot;font-size: 8px;&quot;&gt;«Component»&lt;br&gt;&lt;b&gt;Review Feedback&amp;nbsp;&lt;/b&gt;&lt;br&gt;&lt;/font&gt;" style="html=1;dropTarget=0;whiteSpace=wrap;movable=1;resizable=1;rotatable=1;deletable=1;editable=1;locked=0;connectable=1;container=0;" vertex="1" parent="1">
          <mxGeometry x="1025" y="527" width="141" height="64" as="geometry" />
        </mxCell>
        <mxCell id="VoS2cG7jSg4z9FvmRYZC-125" value="" style="rounded=0;orthogonalLoop=1;jettySize=auto;html=1;endArrow=none;endFill=0;sketch=0;sourcePerimeterSpacing=0;targetPerimeterSpacing=0;exitX=0.5;exitY=1;exitDx=0;exitDy=0;movable=1;resizable=1;rotatable=1;deletable=1;editable=1;locked=0;connectable=1;" edge="1" parent="1" target="VoS2cG7jSg4z9FvmRYZC-127">
          <mxGeometry relative="1" as="geometry">
            <mxPoint x="834.5049999999997" y="473.9999999999999" as="sourcePoint" />
          </mxGeometry>
        </mxCell>
        <mxCell id="VoS2cG7jSg4z9FvmRYZC-127" value="" style="ellipse;whiteSpace=wrap;html=1;align=center;aspect=fixed;resizable=1;points=[];outlineConnect=0;sketch=0;movable=1;rotatable=1;deletable=1;editable=1;locked=0;connectable=1;" vertex="1" parent="1">
          <mxGeometry x="890" y="492" width="10" height="10" as="geometry" />
        </mxCell>
        <mxCell id="VoS2cG7jSg4z9FvmRYZC-128" value="" style="rounded=0;orthogonalLoop=1;jettySize=auto;html=1;endArrow=none;endFill=0;sketch=0;sourcePerimeterSpacing=0;targetPerimeterSpacing=0;exitX=0;exitY=1;exitDx=0;exitDy=0;movable=1;resizable=1;rotatable=1;deletable=1;editable=1;locked=0;connectable=1;" edge="1" parent="1" target="VoS2cG7jSg4z9FvmRYZC-130">
          <mxGeometry relative="1" as="geometry">
            <mxPoint x="824.1999999999998" y="473.9999999999999" as="sourcePoint" />
          </mxGeometry>
        </mxCell>
        <mxCell id="VoS2cG7jSg4z9FvmRYZC-130" value="" style="ellipse;whiteSpace=wrap;html=1;align=center;aspect=fixed;resizable=1;points=[];outlineConnect=0;sketch=0;movable=1;rotatable=1;deletable=1;editable=1;locked=0;connectable=1;" vertex="1" parent="1">
          <mxGeometry x="805" y="485.26" width="10" height="10" as="geometry" />
        </mxCell>
        <mxCell id="VoS2cG7jSg4z9FvmRYZC-131" value="" style="whiteSpace=wrap;html=1;aspect=fixed;movable=1;resizable=1;rotatable=1;deletable=1;editable=1;locked=0;connectable=1;container=0;" vertex="1" parent="1">
          <mxGeometry x="766.2" y="516" width="20.61" height="20.61" as="geometry" />
        </mxCell>
        <mxCell id="VoS2cG7jSg4z9FvmRYZC-132" value="" style="whiteSpace=wrap;html=1;aspect=fixed;movable=1;resizable=1;rotatable=1;deletable=1;editable=1;locked=0;connectable=1;container=0;" vertex="1" parent="1">
          <mxGeometry x="925.69" y="516" width="20.61" height="20.61" as="geometry" />
        </mxCell>
        <mxCell id="VoS2cG7jSg4z9FvmRYZC-133" value="" style="whiteSpace=wrap;html=1;aspect=fixed;movable=1;resizable=1;rotatable=1;deletable=1;editable=1;locked=0;connectable=1;container=0;" vertex="1" parent="1">
          <mxGeometry x="1085.19" y="516" width="20.61" height="20.61" as="geometry" />
        </mxCell>
        <mxCell id="VoS2cG7jSg4z9FvmRYZC-137" value="" style="rounded=0;orthogonalLoop=1;jettySize=auto;html=1;endArrow=none;endFill=0;sketch=0;sourcePerimeterSpacing=0;targetPerimeterSpacing=0;exitX=1;exitY=0.75;exitDx=0;exitDy=0;movable=1;resizable=1;rotatable=1;deletable=1;editable=1;locked=0;connectable=1;" edge="1" parent="1" target="VoS2cG7jSg4z9FvmRYZC-139">
          <mxGeometry relative="1" as="geometry">
            <mxPoint x="844.81" y="468.84749999999997" as="sourcePoint" />
          </mxGeometry>
        </mxCell>
        <mxCell id="VoS2cG7jSg4z9FvmRYZC-139" value="" style="ellipse;whiteSpace=wrap;html=1;align=center;aspect=fixed;resizable=1;points=[];outlineConnect=0;sketch=0;movable=1;rotatable=1;deletable=1;editable=1;locked=0;connectable=1;" vertex="1" parent="1">
          <mxGeometry x="1015" y="487" width="10" height="10" as="geometry" />
        </mxCell>
        <mxCell id="VoS2cG7jSg4z9FvmRYZC-144" value="" style="whiteSpace=wrap;html=1;aspect=fixed;movable=1;resizable=1;rotatable=1;deletable=1;editable=1;locked=0;connectable=1;container=0;fontStyle=1" vertex="1" parent="1">
          <mxGeometry x="925.69" y="586" width="20.61" height="20.61" as="geometry" />
        </mxCell>
        <mxCell id="VoS2cG7jSg4z9FvmRYZC-145" value="" style="whiteSpace=wrap;html=1;aspect=fixed;movable=1;resizable=1;rotatable=1;deletable=1;editable=1;locked=0;connectable=1;container=0;" vertex="1" parent="1">
          <mxGeometry x="1085.19" y="586" width="20.61" height="20.61" as="geometry" />
        </mxCell>
        <mxCell id="VoS2cG7jSg4z9FvmRYZC-157" value="&lt;font style=&quot;font-size: 10px;&quot;&gt;View Profile&lt;/font&gt;" style="text;html=1;strokeColor=none;fillColor=none;align=center;verticalAlign=middle;whiteSpace=wrap;rounded=0;movable=1;resizable=1;rotatable=1;deletable=1;editable=1;locked=0;connectable=1;" vertex="1" parent="1">
          <mxGeometry x="821" y="504" width="60.19" height="15" as="geometry" />
        </mxCell>
        <mxCell id="VoS2cG7jSg4z9FvmRYZC-158" value="&lt;font style=&quot;font-size: 10px;&quot;&gt;Create new feedback&lt;/font&gt;" style="text;html=1;strokeColor=none;fillColor=none;align=center;verticalAlign=middle;whiteSpace=wrap;rounded=0;movable=1;resizable=1;rotatable=1;deletable=1;editable=1;locked=0;connectable=1;" vertex="1" parent="1">
          <mxGeometry x="941" y="497" width="60.19" height="15" as="geometry" />
        </mxCell>
        <mxCell id="VoS2cG7jSg4z9FvmRYZC-159" value="&lt;font style=&quot;font-size: 10px;&quot;&gt;Review&lt;/font&gt;" style="text;html=1;strokeColor=none;fillColor=none;align=center;verticalAlign=middle;whiteSpace=wrap;rounded=0;movable=1;resizable=1;rotatable=1;deletable=1;editable=1;locked=0;connectable=1;" vertex="1" parent="1">
          <mxGeometry x="1025" y="474" width="60.19" height="15" as="geometry" />
        </mxCell>
        <mxCell id="VoS2cG7jSg4z9FvmRYZC-161" value="" style="rounded=0;orthogonalLoop=1;jettySize=auto;html=1;endArrow=halfCircle;endFill=0;entryX=0.5;entryY=0.5;endSize=6;strokeWidth=1;sketch=0;exitX=0.5;exitY=0;exitDx=0;exitDy=0;" edge="1" target="VoS2cG7jSg4z9FvmRYZC-162" parent="1" source="VoS2cG7jSg4z9FvmRYZC-178">
          <mxGeometry relative="1" as="geometry">
            <mxPoint x="1103" y="623" as="sourcePoint" />
          </mxGeometry>
        </mxCell>
        <mxCell id="VoS2cG7jSg4z9FvmRYZC-162" value="" style="ellipse;whiteSpace=wrap;html=1;align=center;aspect=fixed;resizable=0;points=[];outlineConnect=0;sketch=0;" vertex="1" parent="1">
          <mxGeometry x="930.99" y="721" width="10" height="10" as="geometry" />
        </mxCell>
        <mxCell id="VoS2cG7jSg4z9FvmRYZC-170" value="" style="endArrow=none;html=1;rounded=0;entryX=0.5;entryY=1;entryDx=0;entryDy=0;" edge="1" parent="1" source="VoS2cG7jSg4z9FvmRYZC-209" target="VoS2cG7jSg4z9FvmRYZC-144">
          <mxGeometry width="50" height="50" relative="1" as="geometry">
            <mxPoint x="936" y="659" as="sourcePoint" />
            <mxPoint x="935.9950000000003" y="609.6099999999999" as="targetPoint" />
          </mxGeometry>
        </mxCell>
        <mxCell id="VoS2cG7jSg4z9FvmRYZC-171" value="" style="endArrow=none;html=1;rounded=0;" edge="1" parent="1" source="VoS2cG7jSg4z9FvmRYZC-205" target="VoS2cG7jSg4z9FvmRYZC-162">
          <mxGeometry width="50" height="50" relative="1" as="geometry">
            <mxPoint x="902" y="659" as="sourcePoint" />
            <mxPoint x="937.04" y="633" as="targetPoint" />
          </mxGeometry>
        </mxCell>
        <mxCell id="VoS2cG7jSg4z9FvmRYZC-174" value="" style="shape=module;jettyWidth=8;jettyHeight=4;container=0;" vertex="1" parent="1">
          <mxGeometry x="990.19" y="530" width="11" height="20" as="geometry">
            <mxPoint x="-18" y="7" as="offset" />
          </mxGeometry>
        </mxCell>
        <mxCell id="VoS2cG7jSg4z9FvmRYZC-175" value="" style="shape=module;jettyWidth=8;jettyHeight=4;container=0;" vertex="1" parent="1">
          <mxGeometry x="1150" y="530" width="11" height="20" as="geometry">
            <mxPoint x="-18" y="7" as="offset" />
          </mxGeometry>
        </mxCell>
        <mxCell id="VoS2cG7jSg4z9FvmRYZC-176" value="&lt;font style=&quot;font-size: 8px;&quot;&gt;«Component»&lt;br&gt;&lt;b&gt;Database&lt;/b&gt;&lt;br&gt;&lt;/font&gt;" style="html=1;dropTarget=0;whiteSpace=wrap;movable=1;resizable=1;rotatable=1;deletable=1;editable=1;locked=0;connectable=1;" vertex="1" parent="1">
          <mxGeometry x="867.75" y="780" width="150.51" height="80" as="geometry" />
        </mxCell>
        <mxCell id="VoS2cG7jSg4z9FvmRYZC-177" value="" style="shape=module;jettyWidth=8;jettyHeight=4;" vertex="1" parent="VoS2cG7jSg4z9FvmRYZC-176">
          <mxGeometry x="1" width="13" height="20" relative="1" as="geometry">
            <mxPoint x="-17" y="3" as="offset" />
          </mxGeometry>
        </mxCell>
        <mxCell id="VoS2cG7jSg4z9FvmRYZC-178" value="" style="whiteSpace=wrap;html=1;aspect=fixed;movable=1;resizable=1;rotatable=1;deletable=1;editable=1;locked=0;connectable=1;container=0;fontStyle=1" vertex="1" parent="1">
          <mxGeometry x="932.7" y="770" width="20.61" height="20.61" as="geometry" />
        </mxCell>
        <mxCell id="VoS2cG7jSg4z9FvmRYZC-179" value="" style="whiteSpace=wrap;html=1;aspect=fixed;movable=1;resizable=1;rotatable=1;deletable=1;editable=1;locked=0;connectable=1;container=0;fontStyle=1" vertex="1" parent="1">
          <mxGeometry x="1005.3900000000001" y="809.69" width="20.61" height="20.61" as="geometry" />
        </mxCell>
        <mxCell id="VoS2cG7jSg4z9FvmRYZC-180" value="" style="whiteSpace=wrap;html=1;aspect=fixed;movable=1;resizable=1;rotatable=1;deletable=1;editable=1;locked=0;connectable=1;container=0;fontStyle=1" vertex="1" parent="1">
          <mxGeometry x="858.0000000000001" y="809.69" width="20.61" height="20.61" as="geometry" />
        </mxCell>
        <mxCell id="VoS2cG7jSg4z9FvmRYZC-181" value="" style="rounded=0;orthogonalLoop=1;jettySize=auto;html=1;endArrow=halfCircle;endFill=0;endSize=6;strokeWidth=1;sketch=0;exitX=0;exitY=1;exitDx=0;exitDy=0;entryX=0;entryY=0;entryDx=0;entryDy=0;" edge="1" parent="1" source="VoS2cG7jSg4z9FvmRYZC-207">
          <mxGeometry relative="1" as="geometry">
            <mxPoint x="1081.1999999999998" y="700.31" as="sourcePoint" />
            <mxPoint x="1038" y="725" as="targetPoint" />
          </mxGeometry>
        </mxCell>
        <mxCell id="VoS2cG7jSg4z9FvmRYZC-182" value="" style="ellipse;whiteSpace=wrap;html=1;align=center;aspect=fixed;resizable=0;points=[];outlineConnect=0;sketch=0;" vertex="1" parent="1">
          <mxGeometry x="1032" y="720" width="10" height="10" as="geometry" />
        </mxCell>
        <mxCell id="VoS2cG7jSg4z9FvmRYZC-184" value="" style="endArrow=none;html=1;rounded=0;entryX=1;entryY=0;entryDx=0;entryDy=0;" edge="1" parent="1" source="VoS2cG7jSg4z9FvmRYZC-182" target="VoS2cG7jSg4z9FvmRYZC-178">
          <mxGeometry width="50" height="50" relative="1" as="geometry">
            <mxPoint x="977.82" y="685" as="sourcePoint" />
            <mxPoint x="977.82" y="762" as="targetPoint" />
          </mxGeometry>
        </mxCell>
        <mxCell id="VoS2cG7jSg4z9FvmRYZC-186" value="" style="whiteSpace=wrap;html=1;aspect=fixed;movable=1;resizable=1;rotatable=1;deletable=1;editable=1;locked=0;connectable=1;container=0;fontStyle=1" vertex="1" parent="1">
          <mxGeometry x="766.2" y="586" width="20.61" height="20.61" as="geometry" />
        </mxCell>
        <mxCell id="VoS2cG7jSg4z9FvmRYZC-189" value="" style="endArrow=none;html=1;rounded=0;exitX=0;exitY=0;exitDx=0;exitDy=0;" edge="1" parent="1" target="VoS2cG7jSg4z9FvmRYZC-187" source="VoS2cG7jSg4z9FvmRYZC-178">
          <mxGeometry width="50" height="50" relative="1" as="geometry">
            <mxPoint x="850" y="622.61" as="sourcePoint" />
            <mxPoint x="885.04" y="596.61" as="targetPoint" />
          </mxGeometry>
        </mxCell>
        <mxCell id="VoS2cG7jSg4z9FvmRYZC-54" value="&lt;b style=&quot;border-color: var(--border-color);&quot;&gt;&lt;font style=&quot;font-size: 10px;&quot;&gt;Lecturer&lt;/font&gt;&lt;/b&gt;" style="text;html=1;strokeColor=none;fillColor=none;align=center;verticalAlign=middle;whiteSpace=wrap;rounded=0;movable=1;resizable=1;rotatable=1;deletable=1;editable=1;locked=0;connectable=1;" vertex="1" parent="1">
          <mxGeometry x="-66.1269830769231" y="409.99736842105256" width="221.65396615384614" height="35.86578947368421" as="geometry" />
        </mxCell>
        <mxCell id="VoS2cG7jSg4z9FvmRYZC-192" value="" style="rounded=0;orthogonalLoop=1;jettySize=auto;html=1;endArrow=none;endFill=0;sketch=0;sourcePerimeterSpacing=0;targetPerimeterSpacing=0;exitX=0;exitY=0.5;exitDx=0;exitDy=0;" edge="1" target="VoS2cG7jSg4z9FvmRYZC-194" parent="1" source="VoS2cG7jSg4z9FvmRYZC-180">
          <mxGeometry relative="1" as="geometry">
            <mxPoint x="665" y="815.9949999999999" as="sourcePoint" />
          </mxGeometry>
        </mxCell>
        <mxCell id="VoS2cG7jSg4z9FvmRYZC-196" value="" style="endArrow=none;html=1;rounded=0;entryX=0.5;entryY=1;entryDx=0;entryDy=0;" edge="1" parent="1" target="VoS2cG7jSg4z9FvmRYZC-173">
          <mxGeometry width="50" height="50" relative="1" as="geometry">
            <mxPoint x="45" y="816" as="sourcePoint" />
            <mxPoint x="44.695000000000164" y="746.61" as="targetPoint" />
          </mxGeometry>
        </mxCell>
        <mxCell id="VoS2cG7jSg4z9FvmRYZC-204" value="" style="whiteSpace=wrap;html=1;aspect=fixed;movable=1;resizable=1;rotatable=1;deletable=1;editable=1;locked=0;connectable=1;container=0;fontStyle=1" vertex="1" parent="1">
          <mxGeometry x="766.2" y="675.7" width="20.61" height="20.61" as="geometry" />
        </mxCell>
        <mxCell id="VoS2cG7jSg4z9FvmRYZC-206" value="" style="endArrow=none;html=1;rounded=0;" edge="1" parent="1" target="VoS2cG7jSg4z9FvmRYZC-205">
          <mxGeometry width="50" height="50" relative="1" as="geometry">
            <mxPoint x="936" y="659" as="sourcePoint" />
            <mxPoint x="936" y="711" as="targetPoint" />
          </mxGeometry>
        </mxCell>
        <mxCell id="VoS2cG7jSg4z9FvmRYZC-205" value="" style="whiteSpace=wrap;html=1;aspect=fixed;movable=1;resizable=1;rotatable=1;deletable=1;editable=1;locked=0;connectable=1;container=0;fontStyle=1" vertex="1" parent="1">
          <mxGeometry x="925.69" y="675.7" width="20.61" height="20.61" as="geometry" />
        </mxCell>
        <mxCell id="VoS2cG7jSg4z9FvmRYZC-207" value="" style="whiteSpace=wrap;html=1;aspect=fixed;movable=1;resizable=1;rotatable=1;deletable=1;editable=1;locked=0;connectable=1;container=0;fontStyle=1" vertex="1" parent="1">
          <mxGeometry x="1085.2" y="675.7" width="20.61" height="20.61" as="geometry" />
        </mxCell>
        <mxCell id="VoS2cG7jSg4z9FvmRYZC-208" value="" style="ellipse;whiteSpace=wrap;html=1;align=center;aspect=fixed;resizable=0;points=[];outlineConnect=0;sketch=0;" vertex="1" parent="1">
          <mxGeometry x="771.5" y="636" width="10" height="10" as="geometry" />
        </mxCell>
        <mxCell id="VoS2cG7jSg4z9FvmRYZC-210" value="" style="endArrow=none;html=1;rounded=0;entryX=0.5;entryY=1;entryDx=0;entryDy=0;" edge="1" parent="1" target="VoS2cG7jSg4z9FvmRYZC-209">
          <mxGeometry width="50" height="50" relative="1" as="geometry">
            <mxPoint x="936" y="659" as="sourcePoint" />
            <mxPoint x="936" y="607" as="targetPoint" />
          </mxGeometry>
        </mxCell>
        <mxCell id="VoS2cG7jSg4z9FvmRYZC-209" value="" style="ellipse;whiteSpace=wrap;html=1;align=center;aspect=fixed;resizable=0;points=[];outlineConnect=0;sketch=0;" vertex="1" parent="1">
          <mxGeometry x="930.99" y="636" width="10" height="10" as="geometry" />
        </mxCell>
        <mxCell id="VoS2cG7jSg4z9FvmRYZC-211" value="" style="ellipse;whiteSpace=wrap;html=1;align=center;aspect=fixed;resizable=0;points=[];outlineConnect=0;sketch=0;" vertex="1" parent="1">
          <mxGeometry x="1090.5" y="636" width="10" height="10" as="geometry" />
        </mxCell>
        <mxCell id="VoS2cG7jSg4z9FvmRYZC-212" value="" style="rounded=0;orthogonalLoop=1;jettySize=auto;html=1;endArrow=halfCircle;endFill=0;endSize=6;strokeWidth=1;sketch=0;exitX=1;exitY=1;exitDx=0;exitDy=0;" edge="1" parent="1" source="VoS2cG7jSg4z9FvmRYZC-204">
          <mxGeometry relative="1" as="geometry">
            <mxPoint x="788.81" y="698.3100000000001" as="sourcePoint" />
            <mxPoint x="816" y="726" as="targetPoint" />
          </mxGeometry>
        </mxCell>
        <mxCell id="VoS2cG7jSg4z9FvmRYZC-187" value="" style="ellipse;whiteSpace=wrap;html=1;align=center;aspect=fixed;resizable=0;points=[];outlineConnect=0;sketch=0;" vertex="1" parent="1">
          <mxGeometry x="811" y="721" width="10" height="10" as="geometry" />
        </mxCell>
        <mxCell id="VoS2cG7jSg4z9FvmRYZC-220" value="" style="endArrow=none;html=1;rounded=0;entryX=0.5;entryY=0;entryDx=0;entryDy=0;" edge="1" parent="1" source="VoS2cG7jSg4z9FvmRYZC-208" target="VoS2cG7jSg4z9FvmRYZC-204">
          <mxGeometry width="50" height="50" relative="1" as="geometry">
            <mxPoint x="776.36" y="646" as="sourcePoint" />
            <mxPoint x="776.36" y="663" as="targetPoint" />
          </mxGeometry>
        </mxCell>
        <mxCell id="VoS2cG7jSg4z9FvmRYZC-221" value="" style="endArrow=none;html=1;rounded=0;entryX=0.5;entryY=0;entryDx=0;entryDy=0;" edge="1" parent="1">
          <mxGeometry width="50" height="50" relative="1" as="geometry">
            <mxPoint x="776.36" y="606.61" as="sourcePoint" />
            <mxPoint x="776.36" y="636.61" as="targetPoint" />
          </mxGeometry>
        </mxCell>
        <mxCell id="VoS2cG7jSg4z9FvmRYZC-223" value="" style="endArrow=none;html=1;rounded=0;entryX=0.5;entryY=0;entryDx=0;entryDy=0;" edge="1" parent="1">
          <mxGeometry width="50" height="50" relative="1" as="geometry">
            <mxPoint x="1095.3200000000002" y="606.61" as="sourcePoint" />
            <mxPoint x="1095.3200000000002" y="636.61" as="targetPoint" />
          </mxGeometry>
        </mxCell>
        <mxCell id="VoS2cG7jSg4z9FvmRYZC-224" value="" style="endArrow=none;html=1;rounded=0;entryX=0.5;entryY=0;entryDx=0;entryDy=0;" edge="1" parent="1">
          <mxGeometry width="50" height="50" relative="1" as="geometry">
            <mxPoint x="1095.3200000000002" y="645.7" as="sourcePoint" />
            <mxPoint x="1095.3200000000002" y="675.7" as="targetPoint" />
          </mxGeometry>
        </mxCell>
        <mxCell id="VoS2cG7jSg4z9FvmRYZC-256" value="" style="whiteSpace=wrap;html=1;aspect=fixed;movable=1;resizable=1;rotatable=1;deletable=1;editable=1;locked=0;connectable=1;container=0;fontStyle=1" vertex="1" parent="1">
          <mxGeometry x="-99.22999999999993" y="389.39" width="20.61" height="20.61" as="geometry" />
        </mxCell>
        <mxCell id="VoS2cG7jSg4z9FvmRYZC-266" value="" style="endArrow=none;html=1;rounded=0;entryX=0.5;entryY=0;entryDx=0;entryDy=0;" edge="1" parent="1" source="VoS2cG7jSg4z9FvmRYZC-122">
          <mxGeometry width="50" height="50" relative="1" as="geometry">
            <mxPoint x="590" y="390" as="sourcePoint" />
            <mxPoint x="834.5049999999997" y="453.39" as="targetPoint" />
          </mxGeometry>
        </mxCell>
        <mxCell id="VoS2cG7jSg4z9FvmRYZC-269" value="" style="rounded=0;orthogonalLoop=1;jettySize=auto;html=1;endArrow=halfCircle;endFill=0;endSize=6;strokeWidth=1;sketch=0;exitX=1;exitY=0;exitDx=0;exitDy=0;" edge="1" parent="1" source="VoS2cG7jSg4z9FvmRYZC-131">
          <mxGeometry relative="1" as="geometry">
            <mxPoint x="797.6575" y="511" as="sourcePoint" />
            <mxPoint x="810" y="490" as="targetPoint" />
          </mxGeometry>
        </mxCell>
        <mxCell id="VoS2cG7jSg4z9FvmRYZC-271" value="" style="rounded=0;orthogonalLoop=1;jettySize=auto;html=1;endArrow=halfCircle;endFill=0;endSize=6;strokeWidth=1;sketch=0;exitX=0.5;exitY=0;exitDx=0;exitDy=0;" edge="1" parent="1" source="VoS2cG7jSg4z9FvmRYZC-132">
          <mxGeometry relative="1" as="geometry">
            <mxPoint x="900.9949999999999" y="503" as="sourcePoint" />
            <mxPoint x="895" y="497" as="targetPoint" />
          </mxGeometry>
        </mxCell>
        <mxCell id="VoS2cG7jSg4z9FvmRYZC-272" value="" style="rounded=0;orthogonalLoop=1;jettySize=auto;html=1;endArrow=halfCircle;endFill=0;endSize=6;strokeWidth=1;sketch=0;exitX=0;exitY=0;exitDx=0;exitDy=0;" edge="1" parent="1" source="VoS2cG7jSg4z9FvmRYZC-133">
          <mxGeometry relative="1" as="geometry">
            <mxPoint x="1079.4950000000003" y="512" as="sourcePoint" />
            <mxPoint x="1020" y="492" as="targetPoint" />
          </mxGeometry>
        </mxCell>
        <mxCell id="VoS2cG7jSg4z9FvmRYZC-273" value="&lt;font style=&quot;font-size: 10px;&quot;&gt;Student Info&lt;/font&gt;" style="text;html=1;strokeColor=none;fillColor=none;align=center;verticalAlign=middle;whiteSpace=wrap;rounded=0;movable=1;resizable=1;rotatable=1;deletable=1;editable=1;locked=0;connectable=1;" vertex="1" parent="1">
          <mxGeometry x="745.41" y="730" width="65.59" height="20" as="geometry" />
        </mxCell>
        <mxCell id="VoS2cG7jSg4z9FvmRYZC-274" value="&lt;font style=&quot;font-size: 10px;&quot;&gt;Feedback&lt;/font&gt;" style="text;html=1;strokeColor=none;fillColor=none;align=center;verticalAlign=middle;whiteSpace=wrap;rounded=0;movable=1;resizable=1;rotatable=1;deletable=1;editable=1;locked=0;connectable=1;" vertex="1" parent="1">
          <mxGeometry x="865.51" y="715" width="60.19" height="15" as="geometry" />
        </mxCell>
        <mxCell id="VoS2cG7jSg4z9FvmRYZC-275" value="&lt;font style=&quot;font-size: 10px;&quot;&gt;Feedback info&lt;/font&gt;" style="text;html=1;strokeColor=none;fillColor=none;align=center;verticalAlign=middle;whiteSpace=wrap;rounded=0;movable=1;resizable=1;rotatable=1;deletable=1;editable=1;locked=0;connectable=1;" vertex="1" parent="1">
          <mxGeometry x="1042" y="721" width="74" height="15" as="geometry" />
        </mxCell>
        <mxCell id="VoS2cG7jSg4z9FvmRYZC-277" value="" style="rounded=0;orthogonalLoop=1;jettySize=auto;html=1;endArrow=none;endFill=0;sketch=0;sourcePerimeterSpacing=0;targetPerimeterSpacing=0;exitX=0.5;exitY=1;exitDx=0;exitDy=0;" edge="1" target="VoS2cG7jSg4z9FvmRYZC-279" parent="1" source="VoS2cG7jSg4z9FvmRYZC-109">
          <mxGeometry relative="1" as="geometry">
            <mxPoint x="24.7" y="345" as="sourcePoint" />
          </mxGeometry>
        </mxCell>
        <mxCell id="VoS2cG7jSg4z9FvmRYZC-278" value="" style="rounded=0;orthogonalLoop=1;jettySize=auto;html=1;endArrow=halfCircle;endFill=0;entryX=0.5;entryY=0.5;endSize=6;strokeWidth=1;sketch=0;exitX=0.5;exitY=0;exitDx=0;exitDy=0;" edge="1" target="VoS2cG7jSg4z9FvmRYZC-279" parent="1" source="VoS2cG7jSg4z9FvmRYZC-255">
          <mxGeometry relative="1" as="geometry">
            <mxPoint x="64.7" y="345" as="sourcePoint" />
          </mxGeometry>
        </mxCell>
        <mxCell id="VoS2cG7jSg4z9FvmRYZC-279" value="" style="ellipse;whiteSpace=wrap;html=1;align=center;aspect=fixed;resizable=0;points=[];outlineConnect=0;sketch=0;" vertex="1" parent="1">
          <mxGeometry x="84.36" y="342" width="10" height="10" as="geometry" />
        </mxCell>
        <mxCell id="VoS2cG7jSg4z9FvmRYZC-280" value="" style="rounded=0;orthogonalLoop=1;jettySize=auto;html=1;endArrow=none;endFill=0;sketch=0;sourcePerimeterSpacing=0;targetPerimeterSpacing=0;" edge="1" target="VoS2cG7jSg4z9FvmRYZC-282" parent="1">
          <mxGeometry relative="1" as="geometry">
            <mxPoint x="80" y="290" as="sourcePoint" />
          </mxGeometry>
        </mxCell>
        <mxCell id="VoS2cG7jSg4z9FvmRYZC-281" value="" style="rounded=0;orthogonalLoop=1;jettySize=auto;html=1;endArrow=halfCircle;endFill=0;entryX=0.5;entryY=0.5;endSize=6;strokeWidth=1;sketch=0;exitX=1;exitY=0;exitDx=0;exitDy=0;" edge="1" target="VoS2cG7jSg4z9FvmRYZC-282" parent="1" source="VoS2cG7jSg4z9FvmRYZC-256">
          <mxGeometry relative="1" as="geometry">
            <mxPoint x="-49.39" y="345" as="sourcePoint" />
          </mxGeometry>
        </mxCell>
        <mxCell id="VoS2cG7jSg4z9FvmRYZC-282" value="" style="ellipse;whiteSpace=wrap;html=1;align=center;aspect=fixed;resizable=0;points=[];outlineConnect=0;sketch=0;" vertex="1" parent="1">
          <mxGeometry x="-20" y="343" width="10" height="10" as="geometry" />
        </mxCell>
        <mxCell id="VoS2cG7jSg4z9FvmRYZC-283" value="" style="rounded=0;orthogonalLoop=1;jettySize=auto;html=1;endArrow=none;endFill=0;sketch=0;sourcePerimeterSpacing=0;targetPerimeterSpacing=0;exitX=1;exitY=0.75;exitDx=0;exitDy=0;" edge="1" target="VoS2cG7jSg4z9FvmRYZC-285" parent="1" source="VoS2cG7jSg4z9FvmRYZC-109">
          <mxGeometry relative="1" as="geometry">
            <mxPoint x="149" y="342" as="sourcePoint" />
          </mxGeometry>
        </mxCell>
        <mxCell id="VoS2cG7jSg4z9FvmRYZC-284" value="" style="rounded=0;orthogonalLoop=1;jettySize=auto;html=1;endArrow=halfCircle;endFill=0;entryX=0.5;entryY=0.5;endSize=6;strokeWidth=1;sketch=0;exitX=0;exitY=0;exitDx=0;exitDy=0;" edge="1" target="VoS2cG7jSg4z9FvmRYZC-285" parent="1" source="VoS2cG7jSg4z9FvmRYZC-254">
          <mxGeometry relative="1" as="geometry">
            <mxPoint x="189" y="342" as="sourcePoint" />
          </mxGeometry>
        </mxCell>
        <mxCell id="VoS2cG7jSg4z9FvmRYZC-285" value="" style="ellipse;whiteSpace=wrap;html=1;align=center;aspect=fixed;resizable=0;points=[];outlineConnect=0;sketch=0;" vertex="1" parent="1">
          <mxGeometry x="184.16" y="342" width="10" height="10" as="geometry" />
        </mxCell>
        <mxCell id="VoS2cG7jSg4z9FvmRYZC-286" value="" style="rounded=0;orthogonalLoop=1;jettySize=auto;html=1;endArrow=none;endFill=0;sketch=0;sourcePerimeterSpacing=0;targetPerimeterSpacing=0;exitX=0.5;exitY=1;exitDx=0;exitDy=0;" edge="1" parent="1" target="VoS2cG7jSg4z9FvmRYZC-287" source="VoS2cG7jSg4z9FvmRYZC-256">
          <mxGeometry relative="1" as="geometry">
            <mxPoint x="59.860000000000014" y="380" as="sourcePoint" />
          </mxGeometry>
        </mxCell>
        <mxCell id="VoS2cG7jSg4z9FvmRYZC-289" value="" style="ellipse;whiteSpace=wrap;html=1;align=center;aspect=fixed;resizable=0;points=[];outlineConnect=0;sketch=0;" vertex="1" parent="1">
          <mxGeometry x="84.62000000000003" y="432" width="10" height="10" as="geometry" />
        </mxCell>
        <mxCell id="VoS2cG7jSg4z9FvmRYZC-290" value="" style="rounded=0;orthogonalLoop=1;jettySize=auto;html=1;endArrow=none;endFill=0;sketch=0;sourcePerimeterSpacing=0;targetPerimeterSpacing=0;entryX=0.5;entryY=0;entryDx=0;entryDy=0;" edge="1" parent="1" source="VoS2cG7jSg4z9FvmRYZC-289">
          <mxGeometry relative="1" as="geometry">
            <mxPoint x="87.53" y="442" as="sourcePoint" />
            <mxPoint x="89.15" y="460" as="targetPoint" />
          </mxGeometry>
        </mxCell>
        <mxCell id="VoS2cG7jSg4z9FvmRYZC-291" value="" style="rounded=0;orthogonalLoop=1;jettySize=auto;html=1;endArrow=none;endFill=0;sketch=0;sourcePerimeterSpacing=0;targetPerimeterSpacing=0;exitX=0.5;exitY=1;exitDx=0;exitDy=0;" edge="1" parent="1" target="VoS2cG7jSg4z9FvmRYZC-289">
          <mxGeometry relative="1" as="geometry">
            <mxPoint x="90.15" y="410" as="sourcePoint" />
          </mxGeometry>
        </mxCell>
        <mxCell id="VoS2cG7jSg4z9FvmRYZC-302" value="" style="group;rotation=0;" vertex="1" connectable="0" parent="1">
          <mxGeometry x="347" y="835" width="40" height="10" as="geometry" />
        </mxCell>
        <mxCell id="VoS2cG7jSg4z9FvmRYZC-303" value="" style="ellipse;whiteSpace=wrap;html=1;align=center;aspect=fixed;resizable=0;points=[];outlineConnect=0;sketch=0;rotation=-180;" vertex="1" parent="VoS2cG7jSg4z9FvmRYZC-302">
          <mxGeometry x="15" width="10" height="10" as="geometry" />
        </mxCell>
        <mxCell id="VoS2cG7jSg4z9FvmRYZC-304" value="" style="rounded=0;orthogonalLoop=1;jettySize=auto;html=1;endArrow=halfCircle;endFill=0;entryX=0.6;entryY=0.5;endSize=6;strokeWidth=1;sketch=0;entryDx=0;entryDy=0;entryPerimeter=0;" edge="1" parent="1">
          <mxGeometry relative="1" as="geometry">
            <mxPoint x="-260" y="840" as="sourcePoint" />
            <mxPoint x="365.9999999999998" y="840" as="targetPoint" />
          </mxGeometry>
        </mxCell>
        <mxCell id="VoS2cG7jSg4z9FvmRYZC-306" value="" style="rounded=0;orthogonalLoop=1;jettySize=auto;html=1;endArrow=none;endFill=0;sketch=0;sourcePerimeterSpacing=0;targetPerimeterSpacing=0;" edge="1" parent="1" target="VoS2cG7jSg4z9FvmRYZC-303">
          <mxGeometry relative="1" as="geometry">
            <mxPoint x="863" y="840" as="sourcePoint" />
            <mxPoint x="374.99999999992815" y="840" as="targetPoint" />
          </mxGeometry>
        </mxCell>
        <mxCell id="VoS2cG7jSg4z9FvmRYZC-307" value="" style="endArrow=none;html=1;rounded=0;entryX=0.25;entryY=1;entryDx=0;entryDy=0;" edge="1" parent="1" target="VoS2cG7jSg4z9FvmRYZC-180">
          <mxGeometry width="50" height="50" relative="1" as="geometry">
            <mxPoint x="863" y="840" as="sourcePoint" />
            <mxPoint x="863.1524999999999" y="832.3000000000001" as="targetPoint" />
          </mxGeometry>
        </mxCell>
        <mxCell id="VoS2cG7jSg4z9FvmRYZC-311" value="&lt;span style=&quot;font-size: 10px;&quot;&gt;Lecturer info&lt;/span&gt;" style="text;html=1;strokeColor=none;fillColor=none;align=center;verticalAlign=middle;whiteSpace=wrap;rounded=0;movable=1;resizable=1;rotatable=1;deletable=1;editable=1;locked=0;connectable=1;" vertex="1" parent="1">
          <mxGeometry x="317.44999999999993" y="850" width="99.09" height="15" as="geometry" />
        </mxCell>
        <mxCell id="VoS2cG7jSg4z9FvmRYZC-315" value="" style="rounded=0;orthogonalLoop=1;jettySize=auto;html=1;endArrow=none;endFill=0;sketch=0;sourcePerimeterSpacing=0;targetPerimeterSpacing=0;exitX=0;exitY=0.75;exitDx=0;exitDy=0;" edge="1" target="VoS2cG7jSg4z9FvmRYZC-317" parent="1" source="VoS2cG7jSg4z9FvmRYZC-109">
          <mxGeometry relative="1" as="geometry">
            <mxPoint x="-140" y="365" as="sourcePoint" />
          </mxGeometry>
        </mxCell>
        <mxCell id="VoS2cG7jSg4z9FvmRYZC-316" value="" style="rounded=0;orthogonalLoop=1;jettySize=auto;html=1;endArrow=halfCircle;endFill=0;entryX=0.5;entryY=0.5;endSize=6;strokeWidth=1;sketch=0;exitX=1;exitY=0;exitDx=0;exitDy=0;" edge="1" target="VoS2cG7jSg4z9FvmRYZC-317" parent="1" source="VoS2cG7jSg4z9FvmRYZC-299">
          <mxGeometry relative="1" as="geometry">
            <mxPoint x="-100" y="365" as="sourcePoint" />
          </mxGeometry>
        </mxCell>
        <mxCell id="VoS2cG7jSg4z9FvmRYZC-317" value="" style="ellipse;whiteSpace=wrap;html=1;align=center;aspect=fixed;resizable=0;points=[];outlineConnect=0;sketch=0;" vertex="1" parent="1">
          <mxGeometry x="-128" y="341" width="10" height="10" as="geometry" />
        </mxCell>
        <mxCell id="VoS2cG7jSg4z9FvmRYZC-319" value="&lt;font style=&quot;font-size: 8px;&quot;&gt;«Component»&lt;br&gt;&lt;b&gt;Reply&amp;nbsp;&lt;/b&gt;&lt;br&gt;&lt;/font&gt;" style="html=1;dropTarget=0;whiteSpace=wrap;movable=1;resizable=1;rotatable=1;deletable=1;editable=1;locked=0;connectable=1;container=0;" vertex="1" parent="1">
          <mxGeometry x="551" y="527" width="141" height="64" as="geometry" />
        </mxCell>
        <mxCell id="VoS2cG7jSg4z9FvmRYZC-320" value="" style="shape=module;jettyWidth=8;jettyHeight=4;container=0;" vertex="1" parent="1">
          <mxGeometry x="675" y="530" width="13" height="20" as="geometry">
            <mxPoint x="-17" y="3" as="offset" />
          </mxGeometry>
        </mxCell>
        <mxCell id="VoS2cG7jSg4z9FvmRYZC-321" value="" style="rounded=0;orthogonalLoop=1;jettySize=auto;html=1;endArrow=none;endFill=0;sketch=0;sourcePerimeterSpacing=0;targetPerimeterSpacing=0;exitX=0;exitY=0.75;exitDx=0;exitDy=0;" edge="1" target="VoS2cG7jSg4z9FvmRYZC-323" parent="1">
          <mxGeometry relative="1" as="geometry">
            <mxPoint x="824.1999999999998" y="468.84749999999997" as="sourcePoint" />
          </mxGeometry>
        </mxCell>
        <mxCell id="VoS2cG7jSg4z9FvmRYZC-322" value="" style="rounded=0;orthogonalLoop=1;jettySize=auto;html=1;endArrow=halfCircle;endFill=0;entryX=0.5;entryY=0.5;endSize=6;strokeWidth=1;sketch=0;exitX=1;exitY=0;exitDx=0;exitDy=0;" edge="1" target="VoS2cG7jSg4z9FvmRYZC-323" parent="1" source="VoS2cG7jSg4z9FvmRYZC-324">
          <mxGeometry relative="1" as="geometry">
            <mxPoint x="732" y="491" as="sourcePoint" />
          </mxGeometry>
        </mxCell>
        <mxCell id="VoS2cG7jSg4z9FvmRYZC-323" value="" style="ellipse;whiteSpace=wrap;html=1;align=center;aspect=fixed;resizable=0;points=[];outlineConnect=0;sketch=0;" vertex="1" parent="1">
          <mxGeometry x="725" y="492" width="10" height="10" as="geometry" />
        </mxCell>
        <mxCell id="VoS2cG7jSg4z9FvmRYZC-324" value="" style="whiteSpace=wrap;html=1;aspect=fixed;movable=1;resizable=1;rotatable=1;deletable=1;editable=1;locked=0;connectable=1;container=0;" vertex="1" parent="1">
          <mxGeometry x="611.2" y="519" width="20.61" height="20.61" as="geometry" />
        </mxCell>
        <mxCell id="VoS2cG7jSg4z9FvmRYZC-325" value="" style="whiteSpace=wrap;html=1;aspect=fixed;movable=1;resizable=1;rotatable=1;deletable=1;editable=1;locked=0;connectable=1;container=0;" vertex="1" parent="1">
          <mxGeometry x="538" y="548.6999999999999" width="20.61" height="20.61" as="geometry" />
        </mxCell>
        <mxCell id="VoS2cG7jSg4z9FvmRYZC-326" value="&lt;font style=&quot;font-size: 10px;&quot;&gt;View Reply&lt;/font&gt;" style="text;html=1;strokeColor=none;fillColor=none;align=center;verticalAlign=middle;whiteSpace=wrap;rounded=0;movable=1;resizable=1;rotatable=1;deletable=1;editable=1;locked=0;connectable=1;" vertex="1" parent="1">
          <mxGeometry x="685.22" y="474" width="60.19" height="15" as="geometry" />
        </mxCell>
        <mxCell id="VoS2cG7jSg4z9FvmRYZC-327" value="&lt;font style=&quot;font-size: 10px;&quot;&gt;View Profile&lt;/font&gt;" style="text;html=1;strokeColor=none;fillColor=none;align=center;verticalAlign=middle;whiteSpace=wrap;rounded=0;movable=1;resizable=1;rotatable=1;deletable=1;editable=1;locked=0;connectable=1;" vertex="1" parent="1">
          <mxGeometry x="-160.21" y="320" width="60.19" height="15" as="geometry" />
        </mxCell>
        <mxCell id="VoS2cG7jSg4z9FvmRYZC-328" value="&lt;font style=&quot;font-size: 10px;&quot;&gt;View Feedback&lt;/font&gt;" style="text;html=1;strokeColor=none;fillColor=none;align=center;verticalAlign=middle;whiteSpace=wrap;rounded=0;movable=1;resizable=1;rotatable=1;deletable=1;editable=1;locked=0;connectable=1;" vertex="1" parent="1">
          <mxGeometry x="-40" y="360" width="80" height="15" as="geometry" />
        </mxCell>
        <mxCell id="VoS2cG7jSg4z9FvmRYZC-329" value="&lt;font style=&quot;font-size: 10px;&quot;&gt;Report and Analysis&lt;/font&gt;" style="text;html=1;strokeColor=none;fillColor=none;align=center;verticalAlign=middle;whiteSpace=wrap;rounded=0;movable=1;resizable=1;rotatable=1;deletable=1;editable=1;locked=0;connectable=1;" vertex="1" parent="1">
          <mxGeometry x="51.03" y="353" width="104.5" height="15" as="geometry" />
        </mxCell>
        <mxCell id="VoS2cG7jSg4z9FvmRYZC-330" value="&lt;font style=&quot;font-size: 10px;&quot;&gt;Reply&lt;/font&gt;" style="text;html=1;strokeColor=none;fillColor=none;align=center;verticalAlign=middle;whiteSpace=wrap;rounded=0;movable=1;resizable=1;rotatable=1;deletable=1;editable=1;locked=0;connectable=1;" vertex="1" parent="1">
          <mxGeometry x="194.16" y="336" width="45.84" height="15" as="geometry" />
        </mxCell>
        <mxCell id="VoS2cG7jSg4z9FvmRYZC-332" value="" style="endArrow=none;html=1;rounded=0;entryX=0.01;entryY=0.441;entryDx=0;entryDy=0;exitX=1;exitY=0.5;exitDx=0;exitDy=0;entryPerimeter=0;" edge="1" parent="1" source="VoS2cG7jSg4z9FvmRYZC-337" target="VoS2cG7jSg4z9FvmRYZC-325">
          <mxGeometry width="50" height="50" relative="1" as="geometry">
            <mxPoint x="380" y="598.7" as="sourcePoint" />
            <mxPoint x="430" y="548.7" as="targetPoint" />
          </mxGeometry>
        </mxCell>
        <mxCell id="VoS2cG7jSg4z9FvmRYZC-334" value="" style="endArrow=none;html=1;rounded=0;entryX=0;entryY=0.5;entryDx=0;entryDy=0;exitX=1;exitY=0.5;exitDx=0;exitDy=0;" edge="1" parent="1" source="VoS2cG7jSg4z9FvmRYZC-341" target="VoS2cG7jSg4z9FvmRYZC-333">
          <mxGeometry width="50" height="50" relative="1" as="geometry">
            <mxPoint x="351" y="558" as="sourcePoint" />
            <mxPoint x="500" y="559" as="targetPoint" />
          </mxGeometry>
        </mxCell>
        <mxCell id="VoS2cG7jSg4z9FvmRYZC-333" value="" style="whiteSpace=wrap;html=1;aspect=fixed;movable=1;resizable=1;rotatable=1;deletable=1;editable=1;locked=0;connectable=1;container=0;fontStyle=1" vertex="1" parent="1">
          <mxGeometry x="389.94" y="547.2" width="20.61" height="20.61" as="geometry" />
        </mxCell>
        <mxCell id="VoS2cG7jSg4z9FvmRYZC-336" value="" style="endArrow=none;html=1;rounded=0;entryX=0;entryY=0.5;entryDx=0;entryDy=0;exitX=1;exitY=0.5;exitDx=0;exitDy=0;" edge="1" parent="1" source="VoS2cG7jSg4z9FvmRYZC-333" target="VoS2cG7jSg4z9FvmRYZC-335">
          <mxGeometry width="50" height="50" relative="1" as="geometry">
            <mxPoint x="411" y="522" as="sourcePoint" />
            <mxPoint x="545" y="523" as="targetPoint" />
          </mxGeometry>
        </mxCell>
        <mxCell id="VoS2cG7jSg4z9FvmRYZC-335" value="" style="whiteSpace=wrap;html=1;aspect=fixed;movable=1;resizable=1;rotatable=1;deletable=1;editable=1;locked=0;connectable=1;container=0;" vertex="1" parent="1">
          <mxGeometry x="461" y="547.1999999999999" width="20.61" height="20.61" as="geometry" />
        </mxCell>
        <mxCell id="VoS2cG7jSg4z9FvmRYZC-338" value="" style="endArrow=none;html=1;rounded=0;entryX=0;entryY=0.5;entryDx=0;entryDy=0;exitX=1;exitY=0.5;exitDx=0;exitDy=0;" edge="1" parent="1" source="VoS2cG7jSg4z9FvmRYZC-335" target="VoS2cG7jSg4z9FvmRYZC-337">
          <mxGeometry width="50" height="50" relative="1" as="geometry">
            <mxPoint x="482" y="558" as="sourcePoint" />
            <mxPoint x="538" y="559" as="targetPoint" />
          </mxGeometry>
        </mxCell>
        <mxCell id="VoS2cG7jSg4z9FvmRYZC-337" value="" style="ellipse;whiteSpace=wrap;html=1;align=center;aspect=fixed;resizable=0;points=[];outlineConnect=0;sketch=0;" vertex="1" parent="1">
          <mxGeometry x="503" y="552.5" width="10" height="10" as="geometry" />
        </mxCell>
        <mxCell id="VoS2cG7jSg4z9FvmRYZC-342" value="" style="endArrow=none;html=1;rounded=0;entryX=0;entryY=0.5;entryDx=0;entryDy=0;exitX=1;exitY=0.5;exitDx=0;exitDy=0;" edge="1" parent="1" source="VoS2cG7jSg4z9FvmRYZC-331" target="VoS2cG7jSg4z9FvmRYZC-341">
          <mxGeometry width="50" height="50" relative="1" as="geometry">
            <mxPoint x="351" y="558" as="sourcePoint" />
            <mxPoint x="390" y="558" as="targetPoint" />
          </mxGeometry>
        </mxCell>
        <mxCell id="VoS2cG7jSg4z9FvmRYZC-341" value="" style="ellipse;whiteSpace=wrap;html=1;align=center;aspect=fixed;resizable=0;points=[];outlineConnect=0;sketch=0;" vertex="1" parent="1">
          <mxGeometry x="366" y="552.5" width="10" height="10" as="geometry" />
        </mxCell>
        <mxCell id="VoS2cG7jSg4z9FvmRYZC-353" value="" style="rounded=0;orthogonalLoop=1;jettySize=auto;html=1;endArrow=none;endFill=0;sketch=0;sourcePerimeterSpacing=0;targetPerimeterSpacing=0;exitX=1;exitY=0.25;exitDx=0;exitDy=0;" edge="1" target="VoS2cG7jSg4z9FvmRYZC-355" parent="1" source="VoS2cG7jSg4z9FvmRYZC-348">
          <mxGeometry relative="1" as="geometry">
            <mxPoint x="720" y="320" as="sourcePoint" />
          </mxGeometry>
        </mxCell>
        <mxCell id="VoS2cG7jSg4z9FvmRYZC-356" value="" style="whiteSpace=wrap;html=1;aspect=fixed;movable=1;resizable=1;rotatable=1;deletable=1;editable=1;locked=0;connectable=1;container=0;" vertex="1" parent="1">
          <mxGeometry x="824.1999999999999" y="453.39" width="20.61" height="20.61" as="geometry" />
        </mxCell>
        <mxCell id="VoS2cG7jSg4z9FvmRYZC-366" value="" style="rounded=0;orthogonalLoop=1;jettySize=auto;html=1;endArrow=none;endFill=0;sketch=0;sourcePerimeterSpacing=0;targetPerimeterSpacing=0;exitX=1;exitY=0.5;exitDx=0;exitDy=0;" edge="1" target="VoS2cG7jSg4z9FvmRYZC-368" parent="1" source="VoS2cG7jSg4z9FvmRYZC-104">
          <mxGeometry relative="1" as="geometry">
            <mxPoint x="611.2" y="184" as="sourcePoint" />
          </mxGeometry>
        </mxCell>
        <mxCell id="VoS2cG7jSg4z9FvmRYZC-367" value="" style="rounded=0;orthogonalLoop=1;jettySize=auto;html=1;endArrow=halfCircle;endFill=0;entryX=0.5;entryY=0.5;endSize=6;strokeWidth=1;sketch=0;exitX=0;exitY=0.5;exitDx=0;exitDy=0;" edge="1" target="VoS2cG7jSg4z9FvmRYZC-368" parent="1" source="VoS2cG7jSg4z9FvmRYZC-357">
          <mxGeometry relative="1" as="geometry">
            <mxPoint x="651.2" y="184" as="sourcePoint" />
          </mxGeometry>
        </mxCell>
        <mxCell id="VoS2cG7jSg4z9FvmRYZC-368" value="" style="ellipse;whiteSpace=wrap;html=1;align=center;aspect=fixed;resizable=0;points=[];outlineConnect=0;sketch=0;" vertex="1" parent="1">
          <mxGeometry x="626.2" y="179" width="10" height="10" as="geometry" />
        </mxCell>
        <mxCell id="VoS2cG7jSg4z9FvmRYZC-369" value="" style="rounded=0;orthogonalLoop=1;jettySize=auto;html=1;endArrow=none;endFill=0;sketch=0;sourcePerimeterSpacing=0;targetPerimeterSpacing=0;exitX=1;exitY=0.75;exitDx=0;exitDy=0;" edge="1" target="VoS2cG7jSg4z9FvmRYZC-371" parent="1" source="VoS2cG7jSg4z9FvmRYZC-104">
          <mxGeometry relative="1" as="geometry">
            <mxPoint x="611.2" y="225" as="sourcePoint" />
          </mxGeometry>
        </mxCell>
        <mxCell id="VoS2cG7jSg4z9FvmRYZC-370" value="" style="rounded=0;orthogonalLoop=1;jettySize=auto;html=1;endArrow=halfCircle;endFill=0;entryX=0.5;entryY=0.5;endSize=6;strokeWidth=1;sketch=0;exitX=0;exitY=0.5;exitDx=0;exitDy=0;" edge="1" target="VoS2cG7jSg4z9FvmRYZC-371" parent="1" source="VoS2cG7jSg4z9FvmRYZC-360">
          <mxGeometry relative="1" as="geometry">
            <mxPoint x="651.2" y="225" as="sourcePoint" />
          </mxGeometry>
        </mxCell>
        <mxCell id="VoS2cG7jSg4z9FvmRYZC-371" value="" style="ellipse;whiteSpace=wrap;html=1;align=center;aspect=fixed;resizable=0;points=[];outlineConnect=0;sketch=0;" vertex="1" parent="1">
          <mxGeometry x="626.2" y="220" width="10" height="10" as="geometry" />
        </mxCell>
        <mxCell id="VoS2cG7jSg4z9FvmRYZC-372" value="&lt;font style=&quot;font-size: 10px;&quot;&gt;View Report&lt;/font&gt;" style="text;html=1;strokeColor=none;fillColor=none;align=center;verticalAlign=middle;whiteSpace=wrap;rounded=0;movable=1;resizable=1;rotatable=1;deletable=1;editable=1;locked=0;connectable=1;" vertex="1" parent="1">
          <mxGeometry x="601.1" y="160.81" width="60.19" height="15" as="geometry" />
        </mxCell>
        <mxCell id="VoS2cG7jSg4z9FvmRYZC-373" value="&lt;font style=&quot;font-size: 10px;&quot;&gt;View Profile&lt;/font&gt;" style="text;html=1;strokeColor=none;fillColor=none;align=center;verticalAlign=middle;whiteSpace=wrap;rounded=0;movable=1;resizable=1;rotatable=1;deletable=1;editable=1;locked=0;connectable=1;" vertex="1" parent="1">
          <mxGeometry x="601.1" y="237" width="60.19" height="15" as="geometry" />
        </mxCell>
      </root>
    </mxGraphModel>
  </diagram>
</mxfile>
